<?xml version="1.0" encoding="UTF-8"?>
<svg width="264px" height="276px" viewBox="0 0 264 276" version="1.1" xmlns="http://www.w3.org/2000/svg" xmlns:xlink="http://www.w3.org/1999/xlink">
    <!-- Generator: Sketch 60.1 (88133) - https://sketch.com -->
    <title>gremlin</title>
    <desc>Created with Sketch.</desc>
    <defs>
        <path d="M171.934021,2.67333014 C178.89652,6.69313084 180.655377,16.6814709 175.862538,24.9829121 C172.786127,30.3114114 167.758152,33.6497248 162.710159,34.2943265 C161.981625,23.1954394 158.328776,13.4814341 153,7.13953899 C158.140892,1.27817721 165.977035,-0.765937178 171.934021,2.67333014 Z M25.5621584,6.74470189 C20.2333822,13.086597 16.5805336,22.8006023 15.8519997,33.8994894 C10.8040062,33.2548877 5.77603135,29.9165743 2.69962085,24.588075 C-2.09321845,16.2866338 -0.334361703,6.29829373 6.62813735,2.27849303 C12.5851231,-1.16077428 20.4212662,0.883340101 25.5621584,6.74470189 Z" id="path-1"></path>
        <path d="M4.8139528,18.6394169 C0.8319648,15.6680671 -1.5679288,9.7334367 1.214874,4.9629176 C3.9976768,0.19239844 10.1208541,-1.418964 14.8913733,1.36383883 C21.339589,5.125298 30.5193297,6.0016278 36.5193297,6.0016278 C42.5193297,6.0016278 51.6990704,5.125298 58.1472861,1.36383883 C62.9178052,-1.418964 69.0409825,0.19239844 71.8237854,4.9629176 C74.6065882,9.7334367 71.7725014,15.5832047 68.2247066,18.6394169 C62,24.0016278 53.5193297,29.0016278 36.5193297,29.0016278 C19.5193297,29.0016278 12,24.0016278 4.8139528,18.6394169 Z" id="path-3"></path>
        <path d="M4.8139528,18.6394169 C0.8319648,15.6680671 -1.5679288,9.7334367 1.214874,4.9629176 C3.9976768,0.19239844 10.1208541,-1.418964 14.8913733,1.36383883 C21.339589,5.125298 30.5193297,6.0016278 36.5193297,6.0016278 C42.5193297,6.0016278 51.6990704,5.125298 58.1472861,1.36383883 C62.9178052,-1.418964 69.0409825,0.19239844 71.8237854,4.9629176 C74.6065882,9.7334367 71.7725014,15.5832047 68.2247066,18.6394169 C62,24.0016278 53.5193297,29.0016278 36.5193297,29.0016278 C19.5193297,29.0016278 12,24.0016278 4.8139528,18.6394169 Z" id="path-5"></path>
        <rect id="path-7" x="0" y="0" width="50" height="30" rx="15"></rect>
        <path d="M12.9,24.8 C9.1444637,21.9833478 8.38334778,16.6555363 11.2,12.9 C14.0166522,9.1444637 19.3444637,8.38334778 23.1,11.2 C30.5175714,16.7631786 38.7280357,19.5 48,19.5 C57.2719643,19.5 65.4824286,16.7631786 72.9,11.2 C76.6555363,8.38334778 81.9833478,9.1444637 84.8,12.9 C87.6166522,16.6555363 86.8555363,21.9833478 83.1,24.8 C72.7397937,32.5701548 60.9502579,36.5 48,36.5 C35.0497421,36.5 23.2602063,32.5701548 12.9,24.8 Z" id="path-9"></path>
        <path d="M23,16 C13.2085847,16 8.7433813,10.6737882 3.0854957,7.0834997 C-0.3048348,5.2500554 -0.6666667,4.5555556 2,5 C8,6 16,0 18,0 C19.3333333,0 21,0.6666667 23,2 C25,0.6666667 26.6666667,0 28,0 C30,0 38,6 44,5 C46.6666667,4.5555556 46.443295,5.2394047 43.3298849,7.0515473 C37.9528407,10.6420945 32.820504,16 23,16 Z" id="path-11"></path>
        <path d="M96,5 L100.017221,13.1397787 L109,14.4450529 L102.5,20.7809869 L104.034442,29.7274694 L96,25.5035134 L87.9655581,29.7274694 L89.5,20.7809869 L83,14.4450529 L91.9827791,13.1397787 L96,5 Z M18,5 L22.0172209,13.1397787 L31,14.4450529 L24.5,20.7809869 L26.0344419,29.7274694 L18,25.5035134 L9.96555815,29.7274694 L11.5,20.7809869 L5,14.4450529 L13.9827791,13.1397787 L18,5 Z" id="path-13"></path>
        <path d="M21,27.868968 C32.5979797,27.868968 42,18.4669477 42,6.86896798 C42,-4.72901177 32.5979797,1.86896798 21,1.86896798 C9.40202025,1.86896798 0,-4.72901177 0,6.86896798 C0,18.4669477 9.40202025,27.868968 21,27.868968 Z" id="path-15"></path>
        <path d="M97,0 L101.017221,8.1397787 L110,9.4450529 L103.5,15.7809869 L105.034442,24.7274694 L97,20.5035134 L88.9655581,24.7274694 L90.5,15.7809869 L84,9.4450529 L92.9827791,8.1397787 L97,0 Z M55,0 L59.0172209,8.1397787 L68,9.4450529 L61.5,15.7809869 L63.0344419,24.7274694 L55,20.5035134 L46.9655581,24.7274694 L48.5,15.7809869 L42,9.4450529 L50.9827791,8.1397787 L55,0 Z M13,0 L17.0172209,8.1397787 L26,9.4450529 L19.5,15.7809869 L21.0344419,24.7274694 L13,20.5035134 L4.96555815,24.7274694 L6.5,15.7809869 L0,9.4450529 L8.9827791,8.1397787 L13,0 Z" id="path-17"></path>
        <path d="M93.3431458,2.27207794 L99,7.92893219 L104.656854,2.27207794 C106.609476,0.31945648 109.775301,0.31945648 111.727922,2.27207794 C113.680544,4.2246994 113.680544,7.39052429 111.727922,9.34314575 L106.071068,15 L111.727922,20.6568542 C113.680544,22.6094757 113.680544,25.7753006 111.727922,27.7279221 C109.775301,29.6805435 106.609476,29.6805435 104.656854,27.7279221 L99,22.0710678 L93.3431458,27.7279221 C91.3905243,29.6805435 88.2246994,29.6805435 86.2720779,27.7279221 C84.3194565,25.7753006 84.3194565,22.6094757 86.2720779,20.6568542 L91.9289322,15 L86.2720779,9.34314575 C84.3194565,7.39052429 84.3194565,4.2246994 86.2720779,2.27207794 C88.2246994,0.31945648 91.3905243,0.31945648 93.3431458,2.27207794 Z M51.3431458,2.27207794 L57,7.92893219 L62.6568542,2.27207794 C64.6094757,0.31945648 67.7753006,0.31945648 69.7279221,2.27207794 C71.6805435,4.2246994 71.6805435,7.39052429 69.7279221,9.34314575 L64.0710678,15 L69.7279221,20.6568542 C71.6805435,22.6094757 71.6805435,25.7753006 69.7279221,27.7279221 C67.7753006,29.6805435 64.6094757,29.6805435 62.6568542,27.7279221 L57,22.0710678 L51.3431458,27.7279221 C49.3905243,29.6805435 46.2246994,29.6805435 44.2720779,27.7279221 C42.3194565,25.7753006 42.3194565,22.6094757 44.2720779,20.6568542 L49.9289322,15 L44.2720779,9.34314575 C42.3194565,7.39052429 42.3194565,4.2246994 44.2720779,2.27207794 C46.2246994,0.31945648 49.3905243,0.31945648 51.3431458,2.27207794 Z M9.34314575,2.27207794 L15,7.92893219 L20.6568542,2.27207794 C22.6094757,0.31945648 25.7753006,0.31945648 27.7279221,2.27207794 C29.6805435,4.2246994 29.6805435,7.39052429 27.7279221,9.34314575 L22.0710678,15 L27.7279221,20.6568542 C29.6805435,22.6094757 29.6805435,25.7753006 27.7279221,27.7279221 C25.7753006,29.6805435 22.6094757,29.6805435 20.6568542,27.7279221 L15,22.0710678 L9.34314575,27.7279221 C7.39052429,29.6805435 4.2246994,29.6805435 2.27207794,27.7279221 C0.31945648,25.7753006 0.31945648,22.6094757 2.27207794,20.6568542 L7.92893219,15 L2.27207794,9.34314575 C0.31945648,7.39052429 0.31945648,4.2246994 2.27207794,2.27207794 C4.2246994,0.31945648 7.39052429,0.31945648 9.34314575,2.27207794 Z" id="path-19"></path>
        <path d="M102.586254,16 C92.6451286,16 87.586254,10 84.586254,1.89392469 C84.2596927,1.01154767 83.586254,9.50350909e-14 84.586254,9.50350909e-14 C85.586254,9.50350909e-14 87.8334403,11.8653166 102.586254,11.8653166 C117.687461,11.8653166 119.435893,0.0134378518 120.511073,0.0067189259 C121.586254,9.50350909e-14 121.107149,0.660084697 120.586254,1.89392469 C117.586254,9 112.52738,16 102.586254,16 Z M60.5262565,16 C50.585131,16 45.5262565,10 42.5262565,1.89392469 C42.1996951,1.01154767 41.5262565,0 42.5262565,0 C43.5262565,0 45.7734428,11.8653166 60.5262565,11.8653166 C75.6274633,11.8653166 77.375895,0.0134378518 78.4510757,0.0067189259 C79.5262565,0 79.0471516,0.660084697 78.5262565,1.89392469 C75.5262565,9 70.467382,16 60.5262565,16 Z M18.5262565,16 C8.58513099,16 3.52625649,10 0.526256489,1.89392469 C0.199695118,1.01154767 -0.473743511,9.50350909e-14 0.526256489,9.50350909e-14 C1.52625649,9.50350909e-14 3.77344278,11.8653166 18.5262565,11.8653166 C33.6274633,11.8653166 35.375895,0.0134378518 36.4510757,0.0067189259 C37.5262565,9.50350909e-14 37.0471516,0.660084697 36.5262565,1.89392469 C33.5262565,9 28.467382,16 18.5262565,16 Z" id="path-21"></path>
        <path d="M102.586254,0 C112.52738,0 117.586254,7 120.586254,14.1060753 C121.107149,15.3399153 121.586254,16 120.511073,15.9932811 C119.435893,15.9865621 117.687461,4.1346834 102.586254,4.1346834 C87.8334403,4.1346834 85.586254,16 84.586254,16 C83.586254,16 84.2596927,14.9884523 84.586254,14.1060753 C87.586254,6 92.6451286,0 102.586254,0 Z M60.5262565,9.59232693e-14 C70.467382,9.59232693e-14 75.5262565,7 78.5262565,14.1060753 C79.0471516,15.3399153 79.5262565,16 78.4510757,15.9932811 C77.375895,15.9865621 75.6274633,4.1346834 60.5262565,4.1346834 C45.7734428,4.1346834 43.5262565,16 42.5262565,16 C41.5262565,16 42.1996951,14.9884523 42.5262565,14.1060753 C45.5262565,6 50.585131,9.59232693e-14 60.5262565,9.59232693e-14 Z M18.5262565,0 C28.467382,0 33.5262565,7 36.5262565,14.1060753 C37.0471516,15.3399153 37.5262565,16 36.4510757,15.9932811 C35.375895,15.9865621 33.6274633,4.1346834 18.5262565,4.1346834 C3.77344278,4.1346834 1.52625649,16 0.526256489,16 C-0.473743511,16 0.199695118,14.9884523 0.526256489,14.1060753 C3.52625649,6 8.58513099,0 18.5262565,0 Z" id="path-23"></path>
    </defs>
    <g id="页面-1" stroke="none" stroke-width="1" fill="none" fill-rule="evenodd">
        <g id="gremlin" transform="translate(-1.000000, -10.000000)">
            <rect id="bg" stroke-opacity="0" stroke="#FFFFFF" x="0.5" y="0.5" width="264" height="285"></rect>
            <g id="hats" transform="translate(68.000000, 35.000000)" fill-rule="nonzero">
                {{#ifCond hat "===" 2}}
                <g id="hat2" transform="translate(0.000000, 2.000000)">
                    <path d="M65,0 C87.09139,0 105,11.6903426 105,26.1111111 C105,26.3981881 104.992903,26.6841831 104.978817,26.9690253 C120.208553,34.7318512 130,46.8273983 130,60.4152542 C130,83.840552 100.898509,102.830508 65,102.830508 C29.1014913,102.830508 0,83.840552 0,60.4152542 C0,46.8273983 9.7914467,34.7318512 25.0213326,26.9691347 C25.0070971,26.6841831 25,26.3981881 25,26.1111111 C25,11.6903426 42.90861,0 65,0 Z" fill="#{{colorDarker}}"></path>
                    <path d="M65,1 C87.09139,1 105,12.6903426 105,27.1111111 C105,27.3981881 104.992903,27.6841831 104.978817,27.9691347 C93.952416,22.3490227 80.075561,19 65,19 C49.924439,19 36.047584,22.3490227 25.0213326,27.9691347 C25.0070971,27.6841831 25,27.3981881 25,27.1111111 C25,12.6903426 42.90861,1 65,1 Z" id="hat2-2" fill="#FFFFFF" opacity="0.204936594"></path>
                </g>
                {{/ifCond}}
                {{#ifCond hat "===" 1}}
                <path d="M65,54 C97.974747,54 124,41.9883449 124,30 C124,18.0116551 97.974747,6 65,6 C32.0252527,6 6,18.0116551 6,30 C6,41.9883449 32.0252527,54 65,54 Z M65,60 C29.1014913,60 0,46.5685425 0,30 C0,13.4314575 29.1014913,0 65,0 C100.898509,0 130,13.4314575 130,30 C130,46.5685425 100.898509,60 65,60 Z" id="hat1" fill="#E8DF6A"></path>
                {{/ifCond}}
            </g>
            <g id="bodies" transform="translate(26.000000, 48.000000)" fill="#{{colorPrimary}}">
                {{#ifCond body "===" 3}}
                <path d="M206.809959,238 L8.05750312,238 C10.8223081,161.507737 25.8418193,23 107.433731,23 C189.025642,23 204.045154,161.507737 206.809959,238 L206.809959,238 Z" id="body3" fill-rule="nonzero"></path>
                {{/ifCond}}
                {{#ifCond body "===" 2}}
                <path d="M203.099433,184.892142 C205.162361,204.04848 206.243429,222.326164 206.809959,238 L8.05750312,238 C8.51343357,225.386035 9.30261476,211.085641 10.6686278,195.998039 C9.77859487,196.888398 9.22238561,197.222386 9,197 C8,196 13,179 12,180 C11,181 8,188 9,181 C9.62086966,176.653912 11.9763955,167.392966 16.0665774,153.21716 C16.6335559,149.813928 17.2377719,146.41242 17.8816709,143.021664 C17.8757864,143.014257 17.8698057,143.007036 17.8637288,143 C17,142 14,147 13,147 C12.4033169,147 15.8119791,137.654194 23.2259865,118.962583 C29.932086,92.9670146 39.4858959,68.9962149 53.0966816,51.5143977 C51.4333932,51.8553591 49.9084015,52.3663941 50,52 C50.1817337,51.2730652 52,51 55,48 C56.2028474,46.7971526 57.566455,45.7550654 58.7040828,44.9381951 C59.3096883,44.2919506 59.9224472,43.6577144 60.5424441,43.0357987 C59.1379325,43.2053906 56.116197,43.883803 57,43 C57.9391741,42.0608259 60.6424441,42.0036998 64.2814135,39.5150352 C76.0575963,29.1268682 90.2732537,23 107.433731,23 C142.963881,23 165.870115,49.2647884 180.63773,85.2361142 C190.379618,105.745371 194.933488,116 194.299342,116 C193.299342,116 191.16307,112 190.299342,113 C190.227094,113.083646 190.178598,113.217317 190.153853,113.401014 C191.110421,116.850958 192.014036,120.343218 192.867629,123.866973 C192.942891,124.08582 193.019706,124.307939 193.098076,124.533333 C197.89892,140.844444 200.632675,151.333333 201.299342,156 C202.254033,162.682837 200.474419,158.428455 199.441055,157.159074 C199.864742,159.83624 200.265968,162.512316 200.645927,165.182908 C202.365748,173.541981 204.931613,185.367729 204.299342,186 C204.157806,186.141535 203.757837,185.772249 203.099433,184.892142 L203.099433,184.892142 Z" id="body2" fill-rule="nonzero"></path>
                {{/ifCond}}
                {{#ifCond body "===" 1}}
                <path d="M121.489377,21.2158124 C123.330106,20.5436911 125.241068,20.1080965 127.146574,19.9937221 C137.771831,19.3559613 141.178128,21.4475923 152.613201,20.9061073 C153.65442,21.7797938 152.019747,25.1255008 147.265363,29.2656274 C151.42288,28.4501746 155.853604,28.4371595 159.826368,29.6188537 C171.903563,33.211202 174.845732,36.9169045 187.784747,40.9442086 C188.486584,42.1598267 186.161225,44.643742 180.931854,47.0375637 C188.586029,52.4120405 198.998956,58.5871509 199.605794,60.2544228 C200.01703,61.3842846 195.892613,64.3584052 189.749569,66.416162 C190.095055,66.5341034 190.441693,66.6563172 190.78922,66.7828067 C201.382758,70.638539 207.926512,78.7854207 207.334259,81.0072851 C207.033729,82.1347387 204.148114,83.1781575 199.994173,83.4287259 C200.672893,84.4433546 201.279818,85.6436738 201.789909,87.0542397 C206.170203,99.1671673 211.708248,102.630614 210.333888,104.544238 C209.495749,105.711241 205.521045,105.803534 200.840311,104.265751 C202.095407,105.82424 203.142997,107.725795 203.858026,110.010878 C207.620809,122.035941 212.214145,130.197123 210.219686,132.144398 C209.150684,133.18811 205.429263,132.766795 201.0555,130.780152 C202.704144,132.824755 204.290598,135.131521 205.744011,137.648907 C212.647019,149.605268 211.355333,162.986806 208.620509,164.853369 C207.181068,165.835811 203.040892,164.637985 198.435206,161.539458 C198.601617,162.25209 198.751214,162.981464 198.882342,163.725124 C200.608462,173.51444 196.439271,182.250021 194.129297,182.839434 C193.192205,183.078543 191.488577,182.046274 189.679316,180.081254 C189.799081,181.275549 189.863146,182.535294 189.863146,183.837023 C189.863146,191.478999 186.397008,197.536174 184.931573,197.674045 C184.532339,197.711606 183.984614,197.268905 183.398935,196.450312 C183.320087,197.079931 183.22378,197.720454 183.109476,198.368705 C182.085897,204.173708 179.195155,208.692034 177.253388,210.400374 C175.317208,219.526981 173.213734,228.786796 170.957168,238.000034 L43.0428237,238.000034 C40.8287397,228.960209 38.7620296,219.875544 36.8561193,210.915861 C35.2184699,209.050239 33,203.9508 33,197.837023 C33,197.151294 33.0177779,196.477216 33.052111,195.818219 C31.4189049,198.65563 29.6522701,200.328639 28.8570348,200.109973 C27.4378035,199.719726 25.0761421,193.152685 26.4031574,185.626807 C26.5309421,184.902104 26.6765594,184.19417 26.8377851,183.506917 C24.8443869,185.842498 22.9035198,187.100861 21.8789611,186.839434 C19.5689876,186.250021 15.3997962,177.51444 17.1259167,167.725124 C17.3014925,166.729385 17.5101816,165.759257 17.7480102,164.820641 C14.0069351,166.951976 10.8449596,167.686352 9.6245003,166.853369 C6.88967572,164.986806 5.59798966,151.605268 12.5009979,139.648907 C12.7511743,139.215588 13.0052926,138.788511 13.2629913,138.367936 C8.51942719,140.705055 4.36743838,141.256737 3.22814568,140.144398 C1.39819732,138.357742 5.11409033,131.339996 8.64590894,120.906317 C5.00786873,121.742026 2.14116374,121.514831 1.44408559,120.544238 C0.335054243,119.000051 3.72709028,116.446686 7.37974888,109.153643 C3.81700393,110.092116 1.13788066,110.032447 0.519006631,109.146153 C-0.797451333,107.260846 2.56526875,97.3671859 11.2011996,90.1207795 C11.7489375,89.6611728 12.2990211,89.2177201 12.8496475,88.7910531 C7.27158472,87.7346197 3.43781942,85.7838664 3.62927725,84.6980551 C3.89853836,83.1709995 10.9457969,76.9527111 17.1267966,70.9891224 C10.6622932,69.534907 7.46542794,67.2750605 7.98251465,65.8543764 C18.0662112,60.6522666 21.2870294,56.8892113 28.6836758,52.4946603 C23.6539873,51.2651729 21.1820409,49.4597729 21.6013777,48.3076545 C31.7751837,43.0590578 33.6793082,39.5445036 43.1999308,34.7841923 C46.3444315,33.2119419 50.0497158,32.5739879 53.6418016,32.6485601 C49.68554,28.6627847 48.4604258,25.579972 49.4240356,24.9052451 C58.9366175,26.1932735 61.9348903,24.6949951 70.7639657,26.004263 C71.0737595,26.0502024 71.382829,26.1064288 71.6907472,26.1723707 C67.6708095,22.2119735 65.3568525,17.9092913 66.2970702,17.3664563 C73.1396299,18.909887 75.417613,18.0101796 81.7612683,19.5255411 C82.2931346,19.6525924 82.8182503,19.8221356 83.3328693,20.0281258 C80.4765557,14.9172309 79.5519244,9.49122059 80.6245905,9.30208061 C85.8950364,12.687089 88.0813644,12.6278549 92.9417343,15.8369337 C93.2903509,16.0671093 93.6253237,16.3218717 93.9458404,16.5973287 C97.4542526,10.1917266 100.264551,8.19302221 104.293213,0.383920572 C105.87363,-0.191303922 108.836691,7.84292537 108.920036,16.8982746 C108.921334,17.0393954 108.921051,17.1818764 108.919215,17.3256375 C113.523954,14.9240683 116.937492,14.046897 123.12279,10.0743136 C124.394421,10.2985364 123.834437,15.3252124 121.489386,21.2158091 L121.489377,21.2158124 Z" id="body1"></path>
                {{/ifCond}}
            </g>
            <g id="bodyColors" transform="translate(46.000000, 89.000000)" fill="#{{colorBodyColor}}" fill-rule="nonzero">
                {{#ifCond bodyColor "===" 1}}
                <path d="M25,175 C27.209139,175 29,176.790861 29,179 C29,181.209139 27.209139,183 25,183 C22.790861,183 21,181.209139 21,179 C21,176.790861 22.790861,175 25,175 Z M37,164 C40.3137085,164 43,166.686292 43,170 C43,173.313708 40.3137085,176 37,176 C33.6862915,176 31,173.313708 31,170 C31,166.686292 33.6862915,164 37,164 Z M137.5,176 C141.642136,176 145,179.357865 145,183.5 C145,187.642135 141.642136,191 137.5,191 C133.357864,191 130,187.642135 130,183.5 C130,179.357865 133.357864,176 137.5,176 Z M14,140 C16.209139,140 18,141.790861 18,144 C18,146.209139 16.209139,148 14,148 C11.790861,148 10,146.209139 10,144 C10,141.790861 11.790861,140 14,140 Z M148,140 C150.209139,140 152,141.790861 152,144 C152,146.209139 150.209139,148 148,148 C145.790861,148 144,146.209139 144,144 C144,141.790861 145.790861,140 148,140 Z M6,119 C9.3137085,119 12,121.686292 12,125 C12,128.313708 9.3137085,131 6,131 C2.6862915,131 0,128.313708 0,125 C0,121.686292 2.6862915,119 6,119 Z M160,116 C163.313708,116 166,118.686292 166,122 C166,125.313708 163.313708,128 160,128 C156.686292,128 154,125.313708 154,122 C154,118.686292 156.686292,116 160,116 Z M37,45 C40.3137085,45 43,47.686292 43,51 C43,54.313708 40.3137085,57 37,57 C33.6862915,57 31,54.313708 31,51 C31,47.686292 33.6862915,45 37,45 Z M158.642664,41.856222 L158.431453,41.966978 C157.095842,42.628297 155.591329,43 154,43 C148.477153,43 144,38.522847 144,33 C144,28.994227 146.355312,25.5385672 149.756607,23.9423473 C152.99763,29.531172 155.95054,35.534247 158.642664,41.856222 Z M35,29 C37.209139,29 39,30.790861 39,33 C39,35.209139 37.209139,37 35,37 C32.790861,37 31,35.209139 31,33 C31,30.790861 32.790861,29 35,29 Z M53.5,12 C59.29899,12 64,16.7010101 64,22.5 C64,28.29899 59.29899,33 53.5,33 C47.7010101,33 43,28.29899 43,22.5 C43,16.7010101 47.7010101,12 53.5,12 Z M138.685788,7.926001 L138.680446,7.9370411 C137.874812,10.3002546 135.635904,12 133,12 C129.686292,12 127,9.3137085 127,6 C127,3.2272977 128.88075,0.8938681 131.436112,0.2058482 C133.968957,2.5830373 136.382907,5.1639782 138.685788,7.926001 Z" id="bodyColor1"></path>
                {{/ifCond}}
            </g>
            <g id="ears" transform="translate(1.000000, 86.000000)">
                {{#ifCond ear "===" 4}}
                <g id="ear4" transform="translate(0.000000, 37.000000)" fill-rule="nonzero">
                    <path d="M229.497333,5.57271124 C241.059822,11.6153846 241.1265,19.4318128 249.988852,23.8039814 C258.851205,28.1761501 261.137032,26.2581135 262.959349,29.9772594 C264.781666,33.6964052 245.318798,46.0915023 232.232424,41.32752 C219.146049,36.5635378 215.717938,29.3832876 211.210716,20.9170041 C208.205902,15.2728151 204.036907,11.335995 198.70373,9.10654372 C196.894349,7.98735733 195.816482,6.7028053 195.470128,5.25288764 C194.950597,3.07801114 196.799438,2.08936948 197.891518,1.91569276 C209.408688,0.0840833194 217.934843,-0.469962118 229.497333,5.57271124 Z M65.1871091,1.91465352 C66.2791893,2.08833025 68.1280301,3.07697191 67.6084993,5.25184841 C67.2621455,6.70176607 66.1842783,7.9863181 64.3748979,9.10550449 C59.041721,11.3349558 54.8727253,15.2717759 51.867911,20.9159649 C47.3606896,29.3822484 43.9325782,36.5624985 30.8462038,41.3264808 C17.7598294,46.0904631 -1.70303889,33.695366 0.119278107,29.9762201 C1.9415951,26.2570742 4.22742212,28.1751109 13.089775,23.8029422 C21.9521279,19.4307736 22.0188052,11.6143454 33.5812949,5.57167201 C45.1437846,-0.471001351 53.669939,0.0830440862 65.1871091,1.91465352 Z" fill="#{{colorPrimary}}"></path>
                    <path d="M212.818083,16.7078615 C225.277561,28.4450418 233.607296,30.5934149 240.774713,29.800867 C247.922776,29.0104593 258.880403,25.0234477 262.127501,28.8011977 C262.385844,29.1157723 262.624288,29.4966319 262.855285,29.96807 C264.677602,33.6872159 245.214734,46.082313 232.128359,41.3183307 C219.041985,36.5543484 215.613873,29.3740983 211.106652,20.9078148 C208.101838,15.2636258 203.932842,11.3268057 198.599665,9.09735441 L198.588385,9.09036882 L198.580002,9.07392054 C199.765737,6.33842766 204.511764,8.88307465 212.818083,16.7078615 Z M64.3945613,9.0628868 L64.3861785,9.07933508 L64.3748979,9.08632067 C59.041721,11.315772 54.8727253,15.2525921 51.867911,20.8967811 C47.3606896,29.3630645 43.9325782,36.5433147 30.8462038,41.307297 C17.7598294,46.0712793 -1.70303889,33.6761822 0.119278107,29.9570363 C0.350274611,29.4855982 0.588718813,29.1047386 0.847061591,28.7901639 C4.09416049,25.0124139 15.0517871,28.9994256 22.1998496,29.7898333 C29.3672667,30.5823812 37.6970022,28.4340081 50.1564804,16.6968278 C58.4627993,8.87204091 63.2088262,6.32739392 64.3945613,9.0628868 Z M229.273228,5.57271124 C240.835718,11.6153846 240.902395,19.4318128 249.764748,23.8039814 C250.09364,23.9662374 250.413474,24.1198304 250.724563,24.2653698 C247.34653,23.1274624 243.092353,19.5658207 237.96203,13.5804448 C231.96203,6.5804448 223.080655,3.43097866 219.96203,2.5804448 C215.107779,1.25655799 209.960468,0.725229336 204.520097,0.986458842 C212.862793,0.138997709 220.115714,0.786902307 229.273228,5.57271124 Z M58.4544664,0.975425102 C53.0140955,0.714195596 47.8667842,1.24552425 43.0125326,2.56941106 C39.8939084,3.41994492 31.0125326,6.56941106 25.0125326,13.5694111 C19.8822104,19.554787 15.6280329,23.1164286 12.25,24.2543361 C12.5610893,24.1087966 12.8809236,23.9552037 13.2098153,23.7929477 C22.0721681,19.4207791 22.1388454,11.6043509 33.7013351,5.5616775 C42.8588493,0.775868567 50.1117703,0.127963969 58.4544664,0.975425102 Z" id="ear4-2" fill-opacity="0.2" fill="#000000"></path>
                </g>
                {{/ifCond}}
                {{#ifCond ear "===" 3}}
                <g id="ear3" transform="translate(42.000000, 35.000000)">
                    <path d="M171.934021,2.67333014 C178.89652,6.69313084 180.655377,16.6814709 175.862538,24.9829121 C172.786127,30.3114114 167.758152,33.6497248 162.710159,34.2943265 C161.981625,23.1954394 158.328776,13.4814341 153,7.13953899 C158.140892,1.27817721 165.977035,-0.765937178 171.934021,2.67333014 Z M25.5621584,6.74470189 C20.2333822,13.086597 16.5805336,22.8006023 15.8519997,33.8994894 C10.8040062,33.2548877 5.77603135,29.9165743 2.69962085,24.588075 C-2.09321845,16.2866338 -0.334361703,6.29829373 6.62813735,2.27849303 C12.5851231,-1.16077428 20.4212662,0.883340101 25.5621584,6.74470189 Z" fill="#{{colorPrimary}}" fill-rule="nonzero"></path>
                    <mask id="mask-2" fill="white">
                        <use xlink:href="#path-1"></use>
                    </mask>
                    <g id="ear3-2"></g>
                    <path d="M157.503632,29.7234771 C152.079513,26.5918603 150.709279,18.8104661 154.44313,12.3432468 C158.176981,5.87602742 165.600983,3.17198731 171.025102,6.30360413 C176.449221,9.43522096 177.819455,17.2166151 174.085604,23.6838345 C170.351753,30.1510538 162.927751,32.8550939 157.503632,29.7234771 Z" id="Oval-4-Copy-2" fill-opacity="0.198963995" fill="#000000" fill-rule="nonzero" mask="url(#mask-2)"></path>
                    <path d="M21.3451055,30.0195184 C15.9209861,33.1511353 8.49698431,30.4470951 4.76313348,23.9798758 C1.02928265,17.5126565 2.3995161,9.73126228 7.82363555,6.59964545 C13.247755,3.46802863 20.6717568,6.17206874 24.4056076,12.6392881 C28.1394584,19.1065074 26.769225,26.8879016 21.3451055,30.0195184 Z" id="Oval-4-Copy" fill-opacity="0.198963995" fill="#000000" fill-rule="nonzero" mask="url(#mask-2)"></path>
                </g>
                {{/ifCond}}
                {{#ifCond ear "===" 2}}
                <g id="ear2" transform="translate(34.000000, 26.000000)" fill-rule="nonzero">
                    <path d="M3.36347615,23.0692903 C-0.0433516948,21.1023573 0.0159322829,14.6216176 3.49589062,8.59415295 C6.97584895,2.56668831 12.5586922,-0.725022999 15.9655201,1.24190997 C17.9383501,2.38092393 19.3178963,7.15392539 23.4397037,12.9154383 C26.4357362,17.1033291 33.252964,22.0261614 31.2494512,25.419856 C29.3129915,28.6999709 21.0618688,24.5297089 16.279188,23.8929295 C9.30594417,22.9644925 5.384299,24.2360129 3.36347615,23.0692903 Z M192.558835,22.5596863 C190.538013,23.7264089 186.616367,22.4548884 179.643124,23.3833255 C174.860443,24.0201048 166.60932,28.1903668 164.67286,24.9102519 C162.669348,21.5165574 169.486575,16.5937251 172.482608,12.4058342 C176.604415,6.64432134 177.983962,1.87131988 179.956792,0.732305927 C183.363619,-1.23462705 188.946463,2.05708426 192.426421,8.0845489 C195.906379,14.1120136 195.965663,20.5927533 192.558835,22.5596863 Z" fill="#{{colorPrimary}}"></path>
                    <path d="M13.6592024,3.45820859 C15.7557118,4.66862888 15.3701346,9.2614264 12.7979914,13.716509 C10.2258483,18.1715915 6.44115764,20.80191 4.3446482,19.5914897 C2.24813876,18.3810694 2.63371603,13.7882719 5.20585915,9.33318934 C7.77800227,4.87810677 11.562693,2.2477883 13.6592024,3.45820859 Z M190.255938,8.90034848 C192.828081,13.355431 193.213659,17.9482286 191.117149,19.1586489 C189.02064,20.3690691 185.235949,17.7387507 182.663806,13.2836681 C180.091663,8.82858554 179.706086,4.23578802 181.802595,3.02536773 C183.899105,1.81494744 187.683795,4.44526592 190.255938,8.90034848 Z" id="ear2-1" fill-opacity="0.2" fill="#000000"></path>
                </g>
                {{/ifCond}}
                {{#ifCond ear "===" 1}}
                <g id="ear1" transform="translate(40.000000, 0.000000)" fill-rule="nonzero">
                    <path d="M24.8961023,9.72243186 C28.4859532,15.940236 34.3555762,37.7473177 28.1377721,41.3371686 C21.919968,44.9270194 5.96929272,28.940236 2.37944185,22.7224319 C-1.21040902,16.5046278 -1.08003201,5.08985087 5.1377721,1.5 C11.3555762,-2.08985087 21.3062515,3.50462776 24.8961023,9.72243186 Z M177.726839,1.12703425 C183.944643,4.71688512 184.07502,16.131662 180.485169,22.3494661 C176.895318,28.5672702 160.944643,44.5540537 154.726839,40.9642028 C148.509035,37.374352 154.378658,15.5672702 157.968509,9.34946612 C161.55836,3.13166201 171.509035,-2.46281662 177.726839,1.12703425 Z" fill="#{{colorPrimary}}"></path>
                    <path d="M178,1.63818403 C184.217804,5.2280349 183.848181,15.9203799 180.25833,22.138184 C176.668479,28.3559881 159.74167,44.8125212 155,41.4753526 C157.25833,26.138184 160.25833,19.138184 162.24167,14.8606159 C164.225009,10.5830478 171.782196,-1.95166685 178,1.63818403 Z M20.5998499,14.7224319 C22.5831894,19 25.5831894,26 27.8415196,41.3371686 C23.0998499,44.6743371 6.17304025,28.2178041 2.58318938,22 C-1.0066615,15.7821959 -1.37628448,5.08985087 4.84151963,1.5 C11.0593237,-2.08985087 18.6165104,10.4448637 20.5998499,14.7224319 Z" id="ear1-2" fill-opacity="0.197407156" fill="#000000"></path>
                </g>
                {{/ifCond}}
            </g>
            <g id="noses" transform="translate(119.000000, 197.000000)" fill-rule="nonzero">
                {{#ifCond nose "===" 4}}
                <path d="M26.2256669,11.6346505 C26.5156069,13.5475044 24.9869959,15.4599421 22.8114187,15.9061997 C20.6358415,16.3524574 18.6371449,15.1635462 18.3472048,13.2506923 C18.0572648,11.3378385 18.5843769,1.4170384 20.5539924,1.0130279 C22.5236079,0.6090175 25.9357268,9.7217966 26.2256669,11.6346505 Z M11.8779878,1.01670183 L11.9850669,1.0263913 C13.9546824,1.3736877 14.2598709,11.1604188 13.9253247,13.0577245 C13.5907785,14.9550302 11.5559215,16.1821206 9.3803442,15.7985076 C7.204767,15.4148947 5.7123165,13.5658447 6.0468627,11.668539 C6.3814089,9.7712333 10.0154514,0.679095 11.9850669,1.0263913 L11.8779878,1.01670183 Z" id="nose4" fill="#{{colorDarker}}"></path>
                {{/ifCond}}
                {{#ifCond nose "===" 3}}
                <path d="M20.4081581,24.7501811 C19.007822,24.9128757 17.5289559,25 16,25 C14.5400745,25 13.1258179,24.9205652 11.7819897,24.7717543 C10.9581202,23.2777513 9.430213,21.7587466 7.4282032,20.6028857 C4.7599393,19.0623628 1.954115,18.5737095 0.0787313,19.1488979 C0.0266593,18.9354658 0,18.7189977 0,18.5 C0,14.9101491 7.163444,12 16,12 C24.836556,12 32,14.9101491 32,18.5 C32,18.7026802 31.9771655,18.9031937 31.9324846,19.1011391 C30.0600061,18.6032066 27.3401891,19.1074393 24.75,20.6028857 C22.7576257,21.7531835 21.2348014,23.263138 20.4081581,24.7501811 L20.4081581,24.7501811 Z" id="nose3" fill="#{{colorDarker}}"></path>
                {{/ifCond}}
                {{#ifCond nose "===" 2}}
                <path d="M20.0403941,23.3225754 C18.7497622,23.5713187 17.3957522,23.7037037 16,23.7037037 C14.3518156,23.7037037 12.7618377,23.5191029 11.265692,23.1762909 C10.7878184,21.4085399 9.4190854,19.6537518 7.4074074,18.492309 C5.5565614,17.4237225 3.5428672,17.0776008 1.8543187,17.3951501 C0.6705154,15.7410327 0,13.854445 0,11.8518519 C0,5.3062548 7.163444,0 16,0 C24.836556,0 32,5.3062548 32,11.8518519 C32,13.9083667 31.2928899,15.8425449 30.048943,17.5282582 C28.2582446,17.0085569 25.9963315,17.3028803 23.9361806,18.492309 C21.8690193,19.6857851 20.4807577,21.5057876 20.0403941,23.3225754 L20.0403941,23.3225754 Z" id="nose2" fill="#{{colorDarker}}"></path>
                {{/ifCond}}
                {{#ifCond nose "===" 1}}
                <path d="M8.036907,14.1852738 C10.7868923,16.4927854 12.5845171,18.8778479 12.0520144,19.5124599 C11.5195117,20.1470719 8.8585295,18.7909188 6.1085441,16.4834071 C3.3585588,14.1758954 1.560934,11.790833 2.0934367,11.156221 C2.6259394,10.521609 5.2869217,11.8777621 8.036907,14.1852738 Z M30.0520144,11.156221 C30.5845171,11.790833 28.7868923,14.1758954 26.036907,16.4834071 C23.2869217,18.7909188 20.6259394,20.1470719 20.0934367,19.5124599 C19.560934,18.8778479 21.3585588,16.4927854 24.1085441,14.1852738 C26.8585295,11.8777621 29.5195117,10.521609 30.0520144,11.156221 Z" id="nose1" fill-opacity="0.202417346" fill="#000000"></path>
                {{/ifCond}}
            </g>
            <g id="mouses" transform="translate(87.000000, 227.000000)">
                {{#ifCond mouse "===" 13}}
                <g id="mouse13" transform="translate(2.000000, 5.000000)">
                    <path d="M9.3103618,20.8562225 C3.8669204,19.9230612 0.21061607,14.7538033 1.1437775,9.3103618 C2.0769388,3.86692044 7.2461967,0.21061607 12.6896382,1.14377745 C23.8001956,3.04844444 34.9016771,4 46,4 C57.0983229,4 68.1998044,3.04844444 79.3103618,1.14377745 C84.7538033,0.21061607 89.9230612,3.86692044 90.8562225,9.3103618 C91.789384,14.7538033 88.1330796,19.9230612 82.6896382,20.8562225 C70.4668623,22.9515556 58.2350104,24 46,24 C33.7649896,24 21.5331377,22.9515556 9.3103618,20.8562225 Z" id="path-1" fill="#{{colorLips}}"></path>
                    <path d="M11,11 C22.6666667,13 34.3333333,14 46,14 C57.6666667,14 69.3333333,13 81,11" id="Path-2-Copy" stroke-opacity="0.202587183" stroke="#000000" stroke-linecap="round"></path>
                </g>
                {{/ifCond}}
                {{#ifCond mouse "===" 12}}
                
                <g id="mouse12" transform="translate(11.000000, 8.000000)">
                    <path d="M4.8139528,18.6394169 C0.8319648,15.6680671 -1.5679288,9.7334367 1.214874,4.9629176 C3.9976768,0.19239844 10.1208541,-1.418964 14.8913733,1.36383883 C21.339589,5.125298 30.5193297,6.0016278 36.5193297,6.0016278 C42.5193297,6.0016278 51.6990704,5.125298 58.1472861,1.36383883 C62.9178052,-1.418964 69.0409825,0.19239844 71.8237854,4.9629176 C74.6065882,9.7334367 71.7725014,15.5832047 68.2247066,18.6394169 C62,24.0016278 53.5193297,29.0016278 36.5193297,29.0016278 C19.5193297,29.0016278 12,24.0016278 4.8139528,18.6394169 Z" id="path-1" fill="#{{colorDarker}}" transform="translate(36.480214, 14.500814) scale(1, -1) translate(-36.480214, -14.500814) "></path>
                    <path d="M37,19 C44.7155612,19 51.4106906,21.8398421 54.7463785,25.9991698 C48.7473163,23.6102376 41.526207,23 36.5193297,23 C31.8971675,23 25.3879721,23.5200624 19.694222,25.4785586 C23.1567381,21.6049977 29.6103461,19 37,19 Z" id="形状结合" fill="#FF6F81" fill-rule="nonzero"></path>
                    <path d="M55.4760095,17.1291341 C56.4608173,17.3027823 58.7544086,21.5714911 57.939231,26.1945927 C57.8679271,26.5989775 57.7843102,26.9942856 57.6896239,27.3787544 C55.3964449,26.1125646 52.7872646,25.1923859 50.1134949,24.5324089 L50.060769,24.8054073 C50.8759465,20.1823057 54.4912018,16.9554859 55.4760095,17.1291341 Z M24.3253131,24.2122811 L24.1392114,24.2511013 C21.549018,24.8133554 18.9836181,25.6053397 16.6678228,26.7034506 C16.5968946,26.3959631 16.5325773,26.0808636 16.4760094,25.7600514 C15.6608319,21.1369498 17.9544232,16.868241 18.9392309,16.6945928 C19.9127388,16.5229371 23.4566758,19.6741616 24.3253131,24.2122811 Z M48.3813187,0.97161289 C52.0190248,1.62763925 55.1129075,2.58256729 57.802906,3.73277713 L57.7958707,3.77656426 L57.7958707,3.77656426 C57.0286448,8.1277187 53.1535884,10.449931 51.5773261,10.80348 C50.0010637,11.157029 47.3699263,6.424626 48.1371522,2.0734716 C48.202448,1.70316058 48.2823525,1.3415782 48.3755503,0.990210838 Z M25.8558487,1.91644264 C26.6230746,6.2675971 23.9919372,11 22.4156748,10.646451 C20.8394125,10.292902 16.9643561,7.9706897 16.1971302,3.61953531 L16.1761363,3.49820683 C18.8798007,2.36827915 21.9571221,1.44332064 25.6163642,0.828922492 C25.7100382,1.1817892 25.7903036,1.54471822 25.8558487,1.91644264 Z M38.8847934,0.0333454958 C41.8039003,0.11702472 44.4562105,0.355804581 46.8783363,0.7225751 L46.8639115,0.80900081 L46.8639115,0.80900081 C46.3364437,3.80041948 44.1409108,5.9137087 41.9600516,5.5291644 C39.9560188,5.17579928 38.6617318,2.83619623 38.8743088,0.13794443 Z M32.8701815,5.52916444 C30.6893223,5.91370875 28.4937895,3.80041955 27.9663217,0.809000877 C27.9477476,0.703662146 27.9314896,0.598639193 27.9175029,0.494023609 C30.4933596,0.174814279 33.340609,-1.07468168e-09 36.5193297,-1.07468168e-09 L35.9440231,0.0026066246 C36.2114894,2.75757961 34.9076479,5.16990415 32.8701815,5.52916444 Z" id="形状结合" fill="#FFFFFF"></path>
                </g>
                {{/ifCond}}
                {{#ifCond mouse "===" 11}}
                <g id="mouse11" transform="translate(11.000000, 8.000000)">
                    <mask id="mask-6" fill="white">
                        <use xlink:href="#path-5"></use>
                    </mask>
                    <use id="path-1" fill="#{{colorDarker}}" fill-rule="nonzero" xlink:href="#path-5"></use>
                    <ellipse id="Oval" fill="#FF6F81" fill-rule="nonzero" mask="url(#mask-6)" cx="37" cy="32" rx="20" ry="13"></ellipse>
                    <path d="M31.9503401,1.69627905 C34.2766959,1.28607976 36.5391617,2.7169154 37.4748502,5.01178902 C38.5345323,2.79454134 40.7868952,1.37530901 43.0266794,1.69627908 C45.7100957,2.0808234 47.3593017,4.81758214 46.7102843,7.80900081 C46.0612668,10.8004195 43.3597955,12.9137087 40.6763793,12.5291644 C39.1241999,12.3067308 37.9180527,11.2972793 37.3025698,9.90676208 C36.6103677,11.2603697 35.3831619,12.2606727 33.8604701,12.5291643 C31.1409986,13.0086805 28.5088342,10.9723813 27.9813663,7.98096258 C27.4538985,4.98954392 29.2308686,2.17579526 31.9503401,1.69627905 Z" id="形状结合" fill="#FFFFFF" fill-rule="nonzero" mask="url(#mask-6)"></path>
                </g>
                {{/ifCond}}
                {{#ifCond mouse "===" 10}}
                <g id="mouse10" transform="translate(23.000000, 10.000000)">
                    <rect id="path-1" fill="#{{colorDarker}}" x="0" y="0" width="50" height="30" rx="15"></rect>
                    <mask id="mask-8" fill="white">
                        <use xlink:href="#path-7"></use>
                    </mask>
                    <g id="path-1"></g>
                    <ellipse id="Oval" fill="#FF6F81" fill-rule="nonzero" mask="url(#mask-8)" cx="25" cy="30" rx="20" ry="13"></ellipse>
                    <path d="M24.9054052,21.6127217 C27.2217202,21.6127217 29.23147,23.0565398 30.231453,25.1706542 C31.1008037,24.7415018 32.0649013,24.5584524 33.0266794,24.6962791 C35.7100957,25.0808234 37.3593017,27.8175821 36.7102843,30.8090008 C36.0612668,33.8004195 33.3597955,35.9137087 30.6763793,35.5291644 C29.5359274,35.365733 28.5822797,34.777433 27.912469,33.9252842 L27.7540187,34.0228979 C26.9065405,34.5267146 25.9363367,34.8127217 24.9054052,34.8127217 C24.0008789,34.8127217 23.1431014,34.592551 22.3739473,34.1982716 C21.7021791,34.8781548 20.8428156,35.3559503 19.8604701,35.5291643 C17.1409986,36.0086805 14.5088342,33.9723812 13.9813663,30.9809626 C13.4538985,27.9895439 15.2308686,25.1757952 17.9503401,24.696279 C18.5793263,24.5853718 19.203642,24.6090481 19.7983264,24.7479977 C20.8548062,22.8663781 22.7470115,21.6127217 24.9054052,21.6127217 Z M24.9054052,-3.38727828 C26.3882061,-3.38727828 27.745377,-2.79560373 28.7924437,-1.81517618 C29.951147,-2.92646716 31.4918665,-3.52366578 33.0266794,-3.30372092 C35.7100957,-2.9191766 37.3593017,-0.18241786 36.7102843,2.80900081 C36.0612668,5.8004195 33.3597955,7.9137087 30.6763793,7.5291644 C30.3149472,7.47736973 29.9722775,7.38290196 29.6514587,7.25088652 C28.554263,8.80935479 26.8363563,9.81272172 24.9054052,9.81272172 C23.0501492,9.81272172 21.391562,8.88647881 20.2909689,7.43145093 C20.1506036,7.47075624 20.0069032,7.50334423 19.8604701,7.52916434 C17.1409986,8.00868054 14.5088342,5.97238125 13.9813663,2.98096258 C13.4538985,-0.0104560843 15.2308686,-2.82420474 17.9503401,-3.30372095 C19.2973204,-3.54122991 20.6228815,-3.16152991 21.6818801,-2.35426906 C22.6123401,-3.00826855 23.7186352,-3.38727828 24.9054052,-3.38727828 Z" id="形状结合" fill="#FFFFFF" fill-rule="nonzero" mask="url(#mask-8)"></path>
                </g>
                {{/ifCond}}
                {{#ifCond mouse "===" 9}}
                <g id="mouse9" transform="translate(12.000000, 11.000000)" fill-rule="nonzero">
                    <path d="M0.6756757,1.9459459 C0.1532442,1.7668266 -0.1250653,1.1981072 0.0540541,0.6756757 C0.2331734,0.1532442 0.8018928,-0.1250653 1.3243243,0.0540541 C12.8880433,4.0187577 24.44529,6 36,6 C47.55471,6 59.1119567,4.0187577 70.6756757,0.0540541 C71.1981072,-0.1250653 71.7668266,0.1532442 71.9459459,0.6756757 C72.1250653,1.1981072 71.8467558,1.7668266 71.3243243,1.9459459 C59.55471,5.9812423 47.7786233,8 36,8 C24.2213767,8 12.44529,5.9812423 0.6756757,1.9459459 Z" id="Path-2-Copy" fill-opacity="0.202587183" fill="#000000"></path>
                    <path d="M62.2073608,4.6679457 C62.1193978,8.5183426 60.3141215,11.6463631 58.9699477,11.8833772 C57.6592331,12.1144916 57.1880179,9.5260151 56.6000184,5.9411121 C58.3925677,5.5831701 60.1846359,5.1782081 61.9765783,4.7265131 L62.2073608,4.6679457 Z M8.801355,4.4112164 C10.6820016,4.9075862 12.5627902,5.3524803 14.4437049,5.7458896 C13.8402667,9.4317354 13.3759662,12.1186595 12.0416138,11.8833772 C10.6790681,11.6431236 8.8427292,8.4322961 8.801562,4.5096668 L8.801355,4.4112164 Z" id="Combined-Shape" fill="#FFFFFF"></path>
                </g>
                {{/ifCond}}
                {{#ifCond mouse "===" 8}}
                <g id="mouse8">
                    <path d="M7.5,32 C-0.231986498,26.2010101 -1.79898987,15.2319865 4,7.5 C9.79898987,-0.231986498 20.7680135,-1.79898987 28.5,4 C34.3597059,8.39477942 40.6753676,10.5 48,10.5 C55.3246324,10.5 61.6402941,8.39477942 67.5,4 C75.2319865,-1.79898987 86.2010101,-0.231986498 92,7.5 C97.7989899,15.2319865 96.2319865,26.2010101 88.5,32 C76.5819281,40.9385539 62.8975898,45.5 48,45.5 C33.1024102,45.5 19.4180719,40.9385539 7.5,32 Z" id="path-1" fill="#{{colorLips}}" fill-rule="nonzero"></path>
                    <path d="M12.9,24.8 C9.1444637,21.9833478 8.38334778,16.6555363 11.2,12.9 C14.0166522,9.1444637 19.3444637,8.38334778 23.1,11.2 C30.5175714,16.7631786 38.7280357,19.5 48,19.5 C57.2719643,19.5 65.4824286,16.7631786 72.9,11.2 C76.6555363,8.38334778 81.9833478,9.1444637 84.8,12.9 C87.6166522,16.6555363 86.8555363,21.9833478 83.1,24.8 C72.7397937,32.5701548 60.9502579,36.5 48,36.5 C35.0497421,36.5 23.2602063,32.5701548 12.9,24.8 Z" id="path-3" fill="#{{colorDarker}}" fill-rule="nonzero"></path>
                    <mask id="mask-10" fill="white">
                        <use xlink:href="#path-9"></use>
                    </mask>
                    <g id="path-3"></g>
                    <path d="M59.4144612,12.5889558 L60.1117071,20.5585133 C60.352381,23.309429 58.317428,25.7345916 55.5665123,25.9752655 C52.8155966,26.2159395 50.3904341,24.1809865 50.1497601,21.4300708 L49.4525142,13.4605132 L59.4144612,12.5889558 Z M36.1330247,12.358447 L46.0949716,13.2300045 L45.3977257,21.199562 C45.1570518,23.9504777 42.7318892,25.9854308 39.9809735,25.7447568 C37.2300578,25.5040829 35.1951048,23.0789203 35.4357787,20.3280046 L36.1330247,12.358447 Z M23.4462619,5 L32.8431881,8.42020143 L30.1070269,15.9377424 C29.1625644,18.5326319 26.2933526,19.8705673 23.6984631,18.9261048 C21.1035736,17.9816422 19.7656382,15.1124305 20.7101007,12.517541 L23.4462619,5 Z M72.4753322,5 L75.2114933,12.517541 C76.1559559,15.1124305 74.8180205,17.9816422 72.2231309,18.9261048 C69.6282414,19.8705673 66.7590297,18.5326319 65.8145671,15.9377424 L63.078406,8.42020143 L72.4753322,5 Z" id="Combined-Shape" fill="#FFFFFF" fill-rule="nonzero" mask="url(#mask-10)"></path>
                </g>
                {{/ifCond}}
                {{#ifCond mouse "===" 7}}
                <g id="mouse7" transform="translate(12.000000, 11.000000)" fill-rule="nonzero">
                    <path d="M0.6756757,1.9459459 C0.1532442,1.7668266 -0.1250653,1.1981072 0.0540541,0.6756757 C0.2331734,0.1532442 0.8018928,-0.1250653 1.3243243,0.0540541 C12.8880433,4.0187577 24.44529,6 36,6 C47.55471,6 59.1119567,4.0187577 70.6756757,0.0540541 C71.1981072,-0.1250653 71.7668266,0.1532442 71.9459459,0.6756757 C72.1250653,1.1981072 71.8467558,1.7668266 71.3243243,1.9459459 C59.55471,5.9812423 47.7786233,8 36,8 C24.2213767,8 12.44529,5.9812423 0.6756757,1.9459459 Z" id="Path-2-Copy" fill-opacity="0.202587183" fill="#000000"></path>
                    <path d="M46.457149,12.2764553 C44.7380975,12.4268528 43.1389182,10.6235608 42.6139209,8.1036036 C44.9154545,7.9590755 47.2166876,7.7378092 49.5177679,7.4405398 C49.457272,10.0408577 48.1893838,12.1249044 46.457149,12.2764553 Z M22.4608325,7.4328997 C24.7363832,7.7281564 27.0120836,7.9490869 29.2879056,8.0956756 C28.7047125,10.4629626 27.163021,12.123642 25.5105652,11.9790708 C23.8948722,11.837716 22.6831467,10.0151482 22.4773254,7.6603906 L22.4608325,7.4328997 Z M63.9328574,9.2138271 C62.2825722,9.5048169 60.5843251,7.9505762 59.8074567,5.6034615 C62.0521237,5.0933347 64.2955581,4.5101803 66.5387793,3.8547763 C66.8020223,6.5690856 65.7055316,8.9012568 63.9328574,9.2138271 Z M5.4067645,3.8278364 C7.6273476,4.4785847 9.8481401,5.0585343 12.069116,5.5676705 C11.2559553,7.7672812 9.6231918,9.196509 8.0348568,8.9164426 C6.3372349,8.6171061 5.2597514,6.465562 5.402145,3.8991514 L5.4067645,3.8278364 Z" id="Combined-Shape" fill="#FFFFFF"></path>
                </g>
                {{/ifCond}}
                {{#ifCond mouse "===" 6}}
                <g id="mouse6" transform="translate(12.000000, 11.000000)" fill-rule="nonzero">
                    <path d="M43.0967004,7.7615315 C49.8155523,7.2889644 56.5333214,6.1684395 63.2492869,4.4003604 C63.2535034,4.4238588 63.2576843,4.4473764 63.2618343,4.4709119 C64.7909279,13.1428329 61.5262347,20.9670379 55.9699379,21.9467629 C50.4136412,22.9264879 44.6697973,16.6907311 43.1407037,8.0188101 C43.125567,7.9329655 43.1109,7.8472041 43.0967004,7.7615315 L43.0967004,7.7615315 Z" id="path-1" fill="#FF6F81"></path>
                    <path d="M55.2541722,17.1428678 C55.0327776,17.1819057 54.0239516,12.5556404 52.8314858,6.1552216 L53.7746022,6.000345 C54.8420076,12.4169273 55.4754393,17.1038525 55.2541722,17.1428678 Z" id="Combined-Shape-Copy" fill-opacity="0.202587183" fill="#000000"></path>
                    <path d="M0.6756757,1.9459459 C0.1532442,1.7668266 -0.1250653,1.1981072 0.0540541,0.6756757 C0.2331734,0.1532442 0.8018928,-0.1250653 1.3243243,0.0540541 C12.8880433,4.0187577 24.44529,6 36,6 C47.55471,6 59.1119567,4.0187577 70.6756757,0.0540541 C71.1981072,-0.1250653 71.7668266,0.1532442 71.9459459,0.6756757 C72.1250653,1.1981072 71.8467558,1.7668266 71.3243243,1.9459459 C59.55471,5.9812423 47.7786233,8 36,8 C24.2213767,8 12.44529,5.9812423 0.6756757,1.9459459 Z" id="Path-2-Copy" fill-opacity="0.202587183" fill="#000000"></path>
                </g>
                {{/ifCond}}
                {{#ifCond mouse "===" 5}}
                <g id="mouse5" transform="translate(11.000000, 8.000000)">
                    <path d="M4.81395276,17.6897183 C0.831964823,14.7183685 -1.56792883,8.78373815 1.21487401,4.01321901 C3.99767684,-0.757300133 6.36349246,0.0519292641 14.8913733,0.0519292641 C24,0.0519292641 30.5193297,0.0519292641 36.5193297,0.0519292641 C42.5193297,0.0519292641 50,0.0519292641 58.1472861,0.0519292641 C66.6169685,0.0519292641 69.0409825,-0.757300133 71.8237854,4.01321901 C74.6065882,8.78373815 71.7725014,14.6335061 68.2247066,17.6897183 C62,23.0519293 53.5193297,28.0519293 36.5193297,28.0519293 C19.5193297,28.0519293 12,23.0519293 4.81395276,17.6897183 Z" id="path-1" fill="#{{colorDarker}}" transform="translate(36.480214, 14.025965) scale(1, -1) translate(-36.480214, -14.025965) "></path>
                    <path d="M38.9948211,35.1920352 C38.8951264,37.0357224 37.3685634,38.5 35.5,38.5 C33.5670034,38.5 32,36.9329966 32,35 L32,35 L31.994898,34.5765306 C31.9506803,32.7636054 31.6190476,31.2380952 31,30 C30.3333333,28.6666667 29,28 27,28 L27,28 L27,27 L39,27 L39,28 L48.8999996,28 L48.8999996,38.0500002 C48.8999996,40.7838096 46.6838092,43 43.9499998,43 C41.2161904,43 39,40.7838096 39,38.0500002 L39,35 L38.9948211,35.1920352 Z M65,28 L65,36 C65,38.209139 63.209139,40 61,40 C58.790861,40 57,38.209139 57,36 L57,28 L65,28 Z" id="path-3" fill="#92C262" fill-rule="nonzero"></path>
                    <path d="M37,14 C52.1585757,14 64.5037112,20.2379878 64.9854061,28.0273559 C63.2450651,28.0951549 61.0516216,28 58.1472861,28 L14.4899151,28.0005861 C12.2788758,28.0069747 10.4942173,28.0631847 9.0130813,28.049907 C9.4720523,20.2502418 21.8265426,14 37,14 Z" id="形状结合" fill="#92C262"></path>
                    <path d="M25.3544715,26.370866 C25.4520021,26.9239895 25.5220774,27.4690346 25.566145,28.0006735 L17.5200866,28.0006697 C17.504912,27.9208332 17.4902163,27.8406225 17.4760094,27.7600514 C16.6608319,23.1369498 18.9544232,18.868241 19.9392309,18.6945928 C20.9240387,18.5209446 24.5392939,21.7477644 25.3544715,26.370866 Z M54.4760095,19.1291341 C55.4469969,19.3003454 57.6902918,23.4524872 56.971726,28.0001766 L48.8906174,28.0007357 C48.9331035,27.6079686 48.9896335,27.2088367 49.060769,26.8054073 C49.8759465,22.1823057 53.4912018,18.9554859 54.4760095,19.1291341 Z M48.3813187,0.971612893 C52.0190248,1.62763926 55.1129075,2.5825673 57.802906,3.73277715 L57.7958707,3.77656426 L57.7958707,3.77656426 C57.0286448,8.1277187 53.1535884,10.449931 51.5773261,10.80348 C50.0010637,11.157029 47.3699263,6.424626 48.1371522,2.0734716 C48.202448,1.70316058 48.2823525,1.3415782 48.3755503,0.990210838 Z M25.8558486,1.91644264 C26.6230746,6.2675971 23.9919372,11 22.4156748,10.646451 C20.8394125,10.292902 16.9643561,7.9706897 16.1971302,3.61953531 L16.1761363,3.49820684 C18.8798007,2.36827916 21.9571221,1.44332064 25.6163642,0.828922494 C25.7100381,1.1817892 25.7903036,1.54471822 25.8558486,1.91644264 Z M38.8847934,0.0333454969 C41.8039003,0.117024722 44.4562105,0.355804583 46.8783363,0.722575103 L46.8639115,0.80900081 L46.8639115,0.80900081 C46.3364437,3.80041948 44.1409108,5.9137087 41.9600516,5.5291644 C39.9560188,5.17579928 38.6617318,2.83619623 38.8743088,0.13794443 Z M32.8701815,5.52916444 C30.6893223,5.91370875 28.4937895,3.80041955 27.9663217,0.809000877 C27.9477476,0.703662146 27.9314896,0.598639193 27.9175029,0.494023609 C30.4933596,0.17481428 33.340609,3.35376171e-11 36.5193297,3.35376171e-11 L35.9440231,0.0026066246 C36.2114894,2.75757961 34.9076479,5.16990415 32.8701815,5.52916444 Z" id="形状结合" fill="#FFFFFF"></path>
                </g>
                {{/ifCond}}
                {{#ifCond mouse "===" 4}}
                <g id="mouse4">
                    <path d="M7.5,32 C-0.231986498,26.2010101 -1.79898987,15.2319865 4,7.5 C9.79898987,-0.231986498 20.7680135,-1.79898987 28.5,4 C34.3597059,8.39477942 40.6753676,10.5 48,10.5 C55.3246324,10.5 61.6402941,8.39477942 67.5,4 C75.2319865,-1.79898987 86.2010101,-0.231986498 92,7.5 C97.7989899,15.2319865 96.2319865,26.2010101 88.5,32 C76.5819281,40.9385539 62.8975898,45.5 48,45.5 C33.1024102,45.5 19.4180719,40.9385539 7.5,32 Z" id="path-1" fill="#{{colorLips}}" transform="translate(48.000000, 22.999485) scale(1, -1) translate(-48.000000, -22.999485) "></path>
                    <path d="M12.9,24.8 C9.1444637,21.9833478 8.38334778,16.6555363 11.2,12.9 C14.0166522,9.1444637 19.3444637,8.38334778 23.1,11.2 C30.5175714,16.7631786 38.7280357,19.5 48,19.5 C57.2719643,19.5 65.4824286,16.7631786 72.9,11.2 C76.6555363,8.38334778 81.9833478,9.1444637 84.8,12.9 C87.6166522,16.6555363 86.8555363,21.9833478 83.1,24.8 C72.7397937,32.5701548 60.9502579,36.5 48,36.5 C35.0497421,36.5 23.2602063,32.5701548 12.9,24.8 Z" id="path-3" fill="#{{colorDarker}}" transform="translate(48.000000, 22.999750) scale(1, -1) translate(-48.000000, -22.999750) "></path>
                    <path d="M28.8088886,12.6636907 L30.2114933,16.517541 C31.1559559,19.1124305 29.8180205,21.9816422 27.2231309,22.9261048 C24.6282414,23.8705673 21.7590297,22.5326319 20.8145671,19.9377424 L19.6670939,16.7831449 C22.6165842,15.1295646 25.6655974,13.7558304 28.8088886,12.6636907 Z M66.7989049,12.5290455 C69.9499798,13.5977736 73.006997,14.9481618 75.9647117,16.5784617 L75.1070269,18.9377424 C74.1625644,21.5326319 71.2933526,22.8705673 68.6984631,21.9261048 C66.1035736,20.9816422 64.7656382,18.1124305 65.7101007,15.517541 Z M44.6760871,9.58709814 L45.1117071,14.5585133 C45.352381,17.309429 43.317428,19.7345916 40.5665123,19.9752655 C37.8155966,20.2159395 35.3904341,18.1809865 35.1497601,15.4300708 L34.7580703,10.9585586 C37.976913,10.2249348 41.2846045,9.76721941 44.6760871,9.58709814 Z M50.8524208,9.56387028 C54.2456158,9.71801533 57.5555502,10.1488477 60.7771932,10.8546905 L60.3977257,15.199562 C60.1570518,17.9504777 57.7318892,19.9854308 54.9809735,19.7447568 C52.2300578,19.5040829 50.1951048,17.0789203 50.4357787,14.3280046 Z" id="形状结合" fill="#FFFFFF"></path>
                </g>
                {{/ifCond}}
                {{#ifCond mouse "===" 3}}
                <path d="M12.6756757,12.9459459 C12.1532442,12.7668266 11.8749347,12.1981072 12.0540541,11.6756757 C12.2331734,11.1532442 12.8018928,10.8749347 13.3243243,11.0540541 C24.8880433,15.0187577 36.44529,17 48,17 C59.55471,17 71.1119567,15.0187577 82.6756757,11.0540541 C83.1981072,10.8749347 83.7668266,11.1532442 83.9459459,11.6756757 C84.1250653,12.1981072 83.8467558,12.7668266 83.3243243,12.9459459 C71.55471,16.9812423 59.7786233,19 48,19 C36.2213767,19 24.44529,16.9812423 12.6756757,12.9459459 Z" id="mouse3" fill-opacity="0.202587183" fill="#000000" fill-rule="nonzero"></path>
                {{/ifCond}}
                {{#ifCond mouse "===" 2}}
                <g id="mouse2" transform="translate(12.000000, 11.000000)" fill-rule="nonzero">
                    <path d="M26.1643354,7.5553503 C29.4489066,7.8651014 32.7337581,8.0200005 36.0188055,8.0200005 C39.5356922,8.0200005 43.0523543,7.8424661 46.5686884,7.4874553 C46.3032888,15.9238623 41.8366253,22.6366706 36.365398,22.6366706 C30.908856,22.6366706 26.4514923,15.9598495 26.1643354,7.5553503 L26.1643354,7.5553503 Z" id="path-1" fill="#FF6F81"></path>
                    <path d="M36.7874726,7.3086218 C36.7090344,12.8418891 36.5344311,16.6921532 36.3316269,16.6921532 C36.1288471,16.6921532 35.9542615,12.8428186 35.8758096,7.3106256 L36.0188055,7.3124457 L36.0188055,7.3124457 L36.7874726,7.3086218 Z" id="Combined-Shape-Copy" fill-opacity="0.202587183" fill="#000000"></path>
                    <path d="M0.6756757,1.9459459 C0.1532442,1.7668266 -0.1250653,1.1981072 0.0540541,0.6756757 C0.2331734,0.1532442 0.8018928,-0.1250653 1.3243243,0.0540541 C12.8880433,4.0187577 24.44529,6 36,6 C47.55471,6 59.1119567,4.0187577 70.6756757,0.0540541 C71.1981072,-0.1250653 71.7668266,0.1532442 71.9459459,0.6756757 C72.1250653,1.1981072 71.8467558,1.7668266 71.3243243,1.9459459 C59.55471,5.9812423 47.7786233,8 36,8 C24.2213767,8 12.44529,5.9812423 0.6756757,1.9459459 Z" id="Path-2-Copy" fill-opacity="0.202587183" fill="#000000"></path>
                </g>
                {{/ifCond}}
                {{#ifCond mouse "===" 1}}
                <g id="mouse1" transform="translate(25.000000, 10.000000)">
                    <path d="M23,16 C13.2085847,16 8.7433813,10.6737882 3.0854957,7.0834997 C-0.3048348,5.2500554 -0.6666667,4.5555556 2,5 C8,6 16,0 18,0 C19.3333333,0 21,0.6666667 23,2 C25,0.6666667 26.6666667,0 28,0 C30,0 38,6 44,5 C46.6666667,4.5555556 46.443295,5.2394047 43.3298849,7.0515473 C37.9528407,10.6420945 32.820504,16 23,16 Z" id="path-1" fill="#FF6F81" fill-rule="nonzero"></path>
                    <mask id="mask-12" fill="white">
                        <use xlink:href="#path-11"></use>
                    </mask>
                    <g id="path-1"></g>
                    <path d="M-12.3243243,2.9459459 C-12.8467558,2.7668266 -13.1250653,2.1981072 -12.9459459,1.6756757 C-12.7668266,1.1532442 -12.1981072,0.8749347 -11.6756757,1.0540541 C-0.1119567,5.0187577 11.44529,7 23,7 C34.55471,7 46.1119567,5.0187577 57.6756757,1.0540541 C58.1981072,0.8749347 58.7668266,1.1532442 58.9459459,1.6756757 C59.1250653,2.1981072 58.8467558,2.7668266 58.3243243,2.9459459 C46.55471,6.9812423 34.7786233,9 23,9 C11.2213767,9 -0.55471,6.9812423 -12.3243243,2.9459459 Z" id="Path-2-Copy" fill-opacity="0.202587183" fill="#000000" fill-rule="nonzero" mask="url(#mask-12)"></path>
                </g>
                {{/ifCond}}
            </g>
            <g id="horns" transform="translate(17.000000, 10.000000)" fill-rule="nonzero">
                {{#ifCond horn "===" 5}}
                <path d="M119.90381,53.5571465 L119.996668,53.2999992 C119.996668,53.9887736 120.003785,54.6455253 120.018017,55.2702543 L120.332056,59.980842 C120.65447,62.4666164 121.209341,63.9063355 121.996668,64.2999992 C123.32557,64.96445 125.905374,65.6289008 127.780402,66 L128,66 L128,72 L104,72 L104,66 L104.216266,66 C106.091295,65.6289008 108.671098,64.96445 110,64.2999992 C110.792986,63.9035064 111.350162,62.445869 111.671528,59.9270872 L111.976862,55.3470734 C111.992287,54.6994227 112,54.0170646 112,53.2999992 L112.095671,53.5649344 L114.740863,13.8870611 C111.475808,13.2940045 109,10.4361303 109,7 C109,3.13400675 112.134007,0 116,0 C119.865993,0 123,3.13400675 123,7 C123,10.4361303 120.524192,13.2940045 117.259137,13.8870611 L119.90381,53.5571465 L119.90381,53.5571465 Z" id="horn5" fill="#{{colorPrimary}}"></path>
                {{/ifCond}}
                {{#ifCond horn "===" 4}}
                <path d="M23.9703325,38.2908149 C25.5126727,43.2964924 25.6058613,48.5512018 24.2638185,54.0195037 C26.1047731,55.7152614 27.9194971,57.8040433 29.2033575,60.2373423 C31.0576874,63.7518516 31.8315701,64.6560632 35.5773485,72.6722026 C36.8723663,75.4436009 38.4492979,78.7246714 39.28585,80.4340978 C42.5541025,87.1125072 44.8300642,89.3575126 47.3974457,92.0186571 C53.4071886,98.247881 61.708597,100.354155 70.2849539,103.162329 C71.5971167,103.591973 70.3635055,106.865392 69.9338614,108.177555 C69.5042173,109.489717 67.1663652,112.431751 65.8542024,112.002106 C56.5105431,108.942694 48.5311077,103.994962 41.9492508,97.1727301 C38.915487,94.0281707 36.1106211,89.3814099 32.624987,82.2587989 C31.7717421,80.5152621 30.9782864,78.8403216 29.6713557,76.0434292 C29.0515223,74.7169569 28.4646997,73.4703985 27.9073207,72.298556 C25.7685997,70.5667458 22.9370502,69.7186468 19.2967741,69.758018 C13.2467509,69.8234517 7.31814217,67.4721227 1.56062207,62.8006827 C0.48843599,61.9307504 0.32447695,60.3563523 1.1944093,59.2841662 C2.06434164,58.2119802 3.6387397,58.0480211 4.71092578,58.9179535 C9.6134442,62.8956766 14.4408109,64.810245 19.2427001,64.7583104 C21.1030992,64.7381894 22.8429549,64.9111893 24.4554772,65.2775304 C21.114212,58.7992303 18.9939113,55.935735 16.5309629,54.4085584 C10.0074756,50.3636028 5.89918295,46.2987961 4.27422015,42.0576063 C3.78023275,40.768288 4.42497585,39.3226331 5.71429417,38.8286457 C7.00361249,38.3346583 8.44926741,38.9794014 8.94325481,40.2687197 C10.0998685,43.2875077 13.4846873,46.6364984 19.1658464,50.1591598 C19.6502684,50.4595306 20.1929327,50.8136422 20.7724118,51.2194347 C21.5108415,47.1162478 21.2995508,43.2070699 20.1476743,39.4686454 C19.8224254,38.4130475 20.4144903,37.29365 21.4700882,36.9684011 C22.5256861,36.6431522 23.6450836,37.235217 23.9703325,38.2908149 Z M210.354457,36.9004766 C211.410055,37.2257255 212.002119,38.345123 211.676871,39.4007209 C210.524994,43.1391454 210.313703,47.0483233 211.052133,51.1515102 C211.631612,50.7457177 212.174276,50.3916061 212.658698,50.0912353 C218.339858,46.5685739 221.724676,43.2195832 222.88129,40.2007952 C223.375277,38.9114769 224.820932,38.2667338 226.110251,38.7607212 C227.399569,39.2547086 228.044312,40.7003635 227.550325,41.9896818 C225.925362,46.2308716 221.817069,50.2956783 215.293582,54.3406339 C212.830634,55.8678105 210.710333,58.7313057 207.369068,65.2096059 C208.98159,64.8432648 210.721446,64.6702649 212.581845,64.6903859 C217.383734,64.7423205 222.211101,62.8277521 227.113619,58.8500289 C228.185805,57.9800966 229.760203,58.1440556 230.630136,59.2162417 C231.500068,60.2884278 231.336109,61.8628258 230.263923,62.7327582 C224.506403,67.4041982 218.577794,69.7555272 212.527771,69.6900935 C208.887495,69.6507223 206.055945,70.4988213 203.917224,72.2306315 C203.359845,73.402474 202.773023,74.6490324 202.153189,75.9755047 C200.846258,78.772397 200.052803,80.4473376 199.199558,82.1908744 C195.713924,89.3134854 192.909058,93.9602461 189.875294,97.1048056 C183.293437,103.927038 175.314002,108.874769 165.970342,111.934182 C164.65818,112.363826 162.320327,109.421793 161.890683,108.10963 C161.461039,106.797467 160.227428,103.524048 161.539591,103.094404 C170.115948,100.28623 178.417356,98.1799565 184.427099,91.9507326 C186.994481,89.2895881 189.270442,87.0445827 192.538695,80.3661733 C193.375247,78.6567469 194.952179,75.3756764 196.247196,72.6042781 C199.992975,64.5881387 200.766857,63.683927 202.621187,60.1694178 C203.905048,57.7361188 205.719772,55.6473369 207.560726,53.9515792 C206.218684,48.4832773 206.311872,43.2285679 207.854212,38.2228904 C208.179461,37.1672925 209.298859,36.5752277 210.354457,36.9004766 Z" id="horn4" fill="#{{colorDarker}}"></path>
                {{/ifCond}}
                {{#ifCond horn "===" 3}}
                <path d="M53.2472774,79.7492876 C65.4273006,93.2173604 73.7042638,90.4686858 75.3231534,92.7806997 C76.9454725,95.0976116 75.8555025,104.087743 69.0694147,110.971102 C64.5453562,115.560009 59.6011825,116.719071 54.2368937,114.448288 C44.1953394,109.969887 37.7639456,100.37397 34.942712,85.6605384 C30.7108617,63.5903902 37.9518124,62.8363119 53.2472774,79.7492876 Z M197.170221,85.6111156 C194.348987,100.324548 187.917593,109.920464 177.876039,114.398866 C172.51175,116.669648 167.567577,115.510586 163.043518,110.92168 C156.25743,104.03832 155.16746,95.0481888 156.78978,92.7312769 C158.408669,90.419263 166.685632,93.1679376 178.865655,79.6998648 C194.161121,62.7868891 201.402071,63.5409674 197.170221,85.6111156 Z" id="horn3" fill="#{{colorDarker}}"></path>
                {{/ifCond}}
                {{#ifCond horn "===" 2}}
                <path d="M44.081281,72.7192982 C64.2081373,90.5934707 77.7727673,91.8648555 79.3916568,94.1768694 C81.013976,96.4937812 79.924006,105.483912 73.1379182,112.367272 C68.6138597,116.956179 62.4544551,119.254865 54.6597046,119.263331 C31.9504422,109.843466 21.1928639,94.069118 22.3869698,71.9402857 C24.1781286,38.7470371 26.961308,57.5154657 44.081281,72.7192982 Z M210.006174,71.755384 C211.20028,93.8842164 200.442702,109.658565 177.73344,119.078429 C169.938689,119.069963 163.779285,116.771277 159.255226,112.18237 C152.469138,105.299011 151.379168,96.3088796 153.001487,93.9919677 C154.620377,91.6799539 168.185007,90.4085691 188.311863,72.5343966 C205.431836,57.3305641 208.215016,38.5621355 210.006174,71.755384 Z" id="horn2" fill="#{{colorDarker}}"></path>
                {{/ifCond}}
                {{#ifCond horn "===" 1}}
                <path d="M177.89324,20.8842269 C203.805881,25.7924442 218.730214,39.4077074 222.66624,61.7300165 C226.602265,84.0523255 212.754669,103.417807 181.123453,119.826461 C173.328703,119.817995 167.169298,117.519309 162.64524,112.930403 C155.859152,106.047043 154.769182,97.0569118 156.391501,94.7399999 C158.01039,92.427986 170.986591,90.5080193 191.701877,73.2824288 C201.000469,65.5502764 204.416311,53.196638 196.92293,39.3970752 C193.388352,32.8879144 187.045122,26.716965 177.89324,20.8842269 Z M54.4965292,20.8842269 C45.3446472,26.716965 39.0014174,32.8879144 35.4668397,39.3970752 C27.973458,53.196638 31.3893004,65.5502764 40.6878927,73.2824288 C61.4031782,90.5080193 74.379379,92.427986 75.9982685,94.7399999 C77.6205877,97.0569118 76.5306177,106.047043 69.7445299,112.930403 C65.2204714,117.519309 59.0610669,119.817995 51.2663163,119.826461 C19.6351,103.417807 5.78750445,84.0523255 9.72352981,61.7300165 C13.6595552,39.4077074 28.5838883,25.7924442 54.4965292,20.8842269 Z" id="horn1" fill="#{{colorDarker}}"></path>
                {{/ifCond}}
            </g>
            <g id="eyes" transform="translate(71.000000, 139.000000)">
                {{#ifCond eye "===" 1}}
                <g id="eye1" transform="translate(7.000000, 6.000000)" fill-rule="nonzero">
                    <circle id="2" fill="#FFFFFF" cx="96" cy="18" r="18"></circle>
                    <circle id="2" fill="#4A4A4A" cx="96" cy="18" r="5"></circle>
                    <circle id="1" fill="#FFFFFF" cx="18" cy="18" r="18"></circle>
                    <circle id="1" fill="#4A4A4A" cx="18" cy="18" r="5"></circle>
                </g>
                {{/ifCond}}
                {{#ifCond eye "===" 2}}
                <g id="eye2" transform="translate(7.000000, 1.000000)">
                    <path d="M96,1.42108547e-14 C110.96582,1.42108547e-14 114,13.0588745 114,23 C114,32.9411255 105.941125,41 96,41 C86.0588745,41 78,32.9411255 78,23 C78,13.0588745 81.0341797,1.42108547e-14 96,1.42108547e-14 Z M18,1.42108547e-14 C32.9658203,1.42108547e-14 36,13.0588745 36,23 C36,32.9411255 27.9411255,41 18,41 C8.0588745,41 0,32.9411255 0,23 C0,13.0588745 3.03417969,1.42108547e-14 18,1.42108547e-14 Z" id="path-1" fill="#{{colorDarker}}" fill-rule="nonzero"></path>
                    <path d="M96,15 C102.993406,15 109.288186,15.9970589 113.674762,17.5879846 C113.907313,19.4297709 114,21.2625052 114,23 C114,24.9590408 113.687039,26.8449857 113.108386,28.6105657 C108.754815,30.0854452 102.697816,31 96,31 C89.302184,31 83.2451851,30.0854452 78.8915956,28.6105331 C78.312961,26.8449857 78,24.9590408 78,23 C78,21.2625052 78.0926867,19.4297709 78.3255639,17.5881649 C82.7118141,15.9970589 89.0065937,15 96,15 Z M18,15 C24.9934063,15 31.2881859,15.9970589 35.6747624,17.5879846 C35.9073133,19.4297709 36,21.2625052 36,23 C36,24.9590408 35.687039,26.8449857 35.1083858,28.6105657 C30.7548149,30.0854452 24.697816,31 18,31 C11.302184,31 5.24518515,30.0854452 0.891595608,28.6105331 C0.312961022,26.8449857 0,24.9590408 0,23 C0,21.2625052 0.092686657,19.4297709 0.325563948,17.5881649 C4.71181411,15.9970589 11.0065937,15 18,15 Z" id="形状结合" fill="#FFFFFF"></path>
                    <circle id="1" fill="#4A4A4A" fill-rule="nonzero" cx="96" cy="23" r="5"></circle>
                    <circle id="1" fill="#4A4A4A" fill-rule="nonzero" cx="18" cy="23" r="5"></circle>
                </g>
                {{/ifCond}}
                {{#ifCond eye "===" 3}}
                <g id="eye3" transform="translate(4.000000, 12.000000)" fill-rule="nonzero">
                    <path d="M100,30 C109.941125,30 118,21.9411255 118,12 C118,2.0588745 109.941125,4 100,4 C90.0588745,4 82,2.0588745 82,12 C82,21.9411255 90.0588745,30 100,30 Z" id="2" fill="#FFFFFF" transform="translate(100.000000, 16.923447) rotate(-10.000000) translate(-100.000000, -16.923447) "></path>
                    <circle id="2" fill="#4A4A4A" cx="99" cy="12" r="5"></circle>
                    <path d="M20,30 C29.9411255,30 38,21.9411255 38,12 C38,2.0588745 29.9411255,4 20,4 C10.0588745,4 2.00000001,2.0588745 2.00000001,12 C2.00000001,21.9411255 10.0588745,30 20,30 Z" id="1" fill="#FFFFFF" transform="translate(20.000000, 16.923447) rotate(10.000000) translate(-20.000000, -16.923447) "></path>
                    <circle id="1" fill="#4A4A4A" cx="21" cy="12" r="5"></circle>
                </g>
                {{/ifCond}}
                {{#ifCond eye "===" 4}}
                <g id="eye4" transform="translate(7.000000, 6.000000)" fill-rule="nonzero">
                    <path d="M96,26.153106 C105.941125,26.153106 114,18.0942315 114,8.15310602 C114,-1.78801947 105.941125,0.153106023 96,0.153106023 C86.0588745,0.153106023 78,-1.78801947 78,8.15310602 C78,18.0942315 86.0588745,26.153106 96,26.153106 Z" id="2" fill="#FFFFFF" transform="translate(96.000000, 13.076553) rotate(-180.000000) translate(-96.000000, -13.076553) "></path>
                    <circle id="2" fill="#4A4A4A" cx="96" cy="18" r="5"></circle>
                    <path d="M18,26.153106 C27.9411255,26.153106 36,18.0942315 36,8.15310602 C36,-1.78801947 27.9411255,0.153106023 18,0.153106023 C8.0588745,0.153106023 0,-1.78801947 0,8.15310602 C0,18.0942315 8.0588745,26.153106 18,26.153106 Z" id="1" fill="#FFFFFF" transform="translate(18.000000, 13.076553) rotate(180.000000) translate(-18.000000, -13.076553) "></path>
                    <circle id="1" fill="#4A4A4A" cx="18" cy="18" r="5"></circle>
                </g>
                {{/ifCond}}
                {{#ifCond eye "===" 5}}
                <g id="eye5" transform="translate(7.000000, 16.000000)" fill-rule="nonzero">
                    <rect id="Rectangle-3-Copy" fill="#FFFFFF" x="78" y="0" width="36" height="16" rx="8"></rect>
                    <circle id="2" fill="#4A4A4A" cx="96" cy="8" r="5"></circle>
                    <rect id="Rectangle-3" fill="#FFFFFF" x="0" y="0" width="36" height="16" rx="8"></rect>
                    <circle id="1" fill="#4A4A4A" cx="18" cy="8" r="5"></circle>
                </g>
                {{/ifCond}}
                {{#ifCond eye "===" 6}}
                <path d="M102.586254,6 C112.52738,6 117.586254,13 120.586254,20.1060753 C121.107149,21.3399153 121.586254,22 120.511073,21.9932811 C119.435893,21.9865621 117.687461,10.1346834 102.586254,10.1346834 C87.8334403,10.1346834 85.586254,22 84.586254,22 C83.586254,22 84.2596927,20.9884523 84.586254,20.1060753 C87.586254,12 92.6451286,6 102.586254,6 Z M24.5262565,6 C34.467382,6 39.5262565,13 42.5262565,20.1060753 C43.0471516,21.3399153 43.5262565,22 42.4510757,21.9932811 C41.375895,21.9865621 39.6274633,10.1346834 24.5262565,10.1346834 C9.77344278,10.1346834 7.52625649,22 6.52625649,22 C5.52625649,22 6.19969512,20.9884523 6.52625649,20.1060753 C9.52625649,12 14.585131,6 24.5262565,6 Z" id="eye6" fill="#{{colorDarker}}"></path>
                {{/ifCond}}
                {{#ifCond eye "===" 7}}
                <path d="M101.586254,42 C91.6451286,42 86.586254,36 83.586254,27.8939247 C83.2596927,27.0115477 82.586254,26 83.586254,26 C84.586254,26 86.8334403,37.8653166 101.586254,37.8653166 C116.687461,37.8653166 118.435893,26.0134379 119.511073,26.0067189 C120.586254,26 120.107149,26.6600847 119.586254,27.8939247 C116.586254,35 111.52738,42 101.586254,42 Z M24.5262565,42 C14.585131,42 9.52625649,36 6.52625649,27.8939247 C6.19969512,27.0115477 5.52625649,26 6.52625649,26 C7.52625649,26 9.77344278,37.8653166 24.5262565,37.8653166 C39.6274633,37.8653166 41.375895,26.0134379 42.4510757,26.0067189 C43.5262565,26 43.0471516,26.6600847 42.5262565,27.8939247 C39.5262565,35 34.467382,42 24.5262565,42 Z" id="eye7" fill="#{{colorDarker}}" fill-rule="nonzero"></path>
                {{/ifCond}}
                {{#ifCond eye "===" 8}}
                <g id="eye8" transform="translate(0.000000, 14.000000)" fill-rule="nonzero">
                    <path d="M88.0037762,6.52321013 L124.132709,0.788458887 C125.917809,0.505109745 127.594618,1.72251903 127.877967,3.50761863 C128.108763,4.96163527 127.34026,6.39079108 126,7 L106.349087,15.9322333 C104.82177,16.626468 103.114849,16.8229697 101.469734,16.4939468 L86.9823197,13.5964639 C85.3199011,13.2639802 84.2212877,11.6722741 84.5,10 C84.7986435,8.20813873 86.2096595,6.80799056 88.0037762,6.52321013 Z" id="Rectangle-3-Copy-2" fill="#FFFFFF"></path>
                    <path d="M39.9148528,6.77569603 C41.7089696,7.06047647 43.1199855,8.46062463 43.418629,10.2524859 C43.6973414,11.92476 42.598728,13.5164661 40.9363093,13.8489498 L26.4488948,16.7464327 C24.8037804,17.0754556 23.0968586,16.8789539 21.5695422,16.1847192 L1.91862903,7.2524859 C0.57836942,6.64327699 -0.190134025,5.21412118 0.0406622682,3.76010453 C0.324011411,1.97500493 2.00082042,0.757595648 3.78592002,1.04094479 L39.9148528,6.77569603 Z" id="Rectangle-3-Copy-4" fill="#FFFFFF"></path>
                    <circle id="2" fill="#4A4A4A" cx="103" cy="10" r="5"></circle>
                    <circle id="1" fill="#4A4A4A" cx="25" cy="10" r="5"></circle>
                </g>
                {{/ifCond}}
                {{#ifCond eye "===" 9}}
                <g id="eye9" transform="translate(7.000000, 6.000000)">
                    <path d="M96,0 C105.941125,0 114,8.0588745 114,18 C114,27.9411255 105.941125,36 96,36 C86.0588745,36 78,27.9411255 78,18 C78,8.0588745 86.0588745,0 96,0 Z M18,0 C27.9411255,0 36,8.0588745 36,18 C36,27.9411255 27.9411255,36 18,36 C8.0588745,36 0,27.9411255 0,18 C0,8.0588745 8.0588745,0 18,0 Z" id="Combined-Shape" fill="#FFFFFF" fill-rule="nonzero"></path>
                    <mask id="mask-14" fill="white">
                        <use xlink:href="#path-13"></use>
                    </mask>
                    <use id="path-1" fill="#E8DF6A" xlink:href="#path-13"></use>
                </g>
                {{/ifCond}}
                {{#ifCond eye "===" 10}}
                <path d="M97.5355339,11.4644661 L103.192388,17.1213203 L108.849242,11.4644661 C110.801864,9.51184463 113.967689,9.51184463 115.92031,11.4644661 C117.872932,13.4170875 117.872932,16.5829124 115.92031,18.5355339 L110.263456,24.1923882 L115.92031,29.8492424 C117.872932,31.8018639 117.872932,34.9676888 115.92031,36.9203102 C113.967689,38.8729317 110.801864,38.8729317 108.849242,36.9203102 L103.192388,31.263456 L97.5355339,36.9203102 C95.5829124,38.8729317 92.4170876,38.8729317 90.4644661,36.9203102 C88.5118446,34.9676888 88.5118446,31.8018639 90.4644661,29.8492424 L96.1213203,24.1923882 L90.4644661,18.5355339 C88.5118446,16.5829124 88.5118446,13.4170875 90.4644661,11.4644661 C92.4170876,9.51184463 95.5829124,9.51184463 97.5355339,11.4644661 Z M19.3431457,11.2720779 L25,16.9289322 L30.6568542,11.2720779 C32.6094757,9.31945648 35.7753006,9.31945648 37.7279221,11.2720779 C39.6805435,13.2246994 39.6805435,16.3905243 37.7279221,18.3431457 L32.0710678,24 L37.7279221,29.6568542 C39.6805435,31.6094757 39.6805435,34.7753006 37.7279221,36.7279221 C35.7753006,38.6805435 32.6094757,38.6805435 30.6568542,36.7279221 L25,31.0710678 L19.3431457,36.7279221 C17.3905243,38.6805435 14.2246994,38.6805435 12.2720779,36.7279221 C10.3194565,34.7753006 10.3194565,31.6094757 12.2720779,29.6568542 L17.9289322,24 L12.2720779,18.3431457 C10.3194565,16.3905243 10.3194565,13.2246994 12.2720779,11.2720779 C14.2246994,9.31945648 17.3905243,9.31945648 19.3431457,11.2720779 Z" id="eye10" fill="#2A2B2D" fill-rule="nonzero"></path>
                {{/ifCond}}
                {{#ifCond eye "===" 11}}
                <g id="eye11" transform="translate(42.000000, 0.000000)" fill-rule="nonzero">
                    <circle id="1" fill="#FFFFFF" cx="21" cy="21" r="21"></circle>
                    <circle id="1" fill="#4A4A4A" cx="21" cy="21" r="5.83333333"></circle>
                </g>
                {{/ifCond}}
                {{#ifCond eye "===" 12}}
                <g id="eye12" transform="translate(42.000000, 14.000000)">
                    <path d="M21,27.868968 C32.5979797,27.868968 42,18.4669477 42,6.86896798 C42,-4.72901177 32.5979797,1.86896798 21,1.86896798 C9.40202025,1.86896798 0,-4.72901177 0,6.86896798 C0,18.4669477 9.40202025,27.868968 21,27.868968 Z" id="path-1" fill="#FFFFFF" fill-rule="nonzero"></path>
                    <mask id="mask-16" fill="white">
                        <use xlink:href="#path-15"></use>
                    </mask>
                    <g id="path-1"></g>
                    <circle id="1" fill="#4A4A4A" fill-rule="nonzero" mask="url(#mask-16)" cx="21" cy="8" r="10"></circle>
                </g>
                {{/ifCond}}
                {{#ifCond eye "===" 13}}
                <path d="M71.4699031,21 L78.2458256,27.7759225 C80.5847248,30.1148217 80.5847248,33.9069265 78.2458256,36.2458256 C75.9069265,38.5847248 72.1148217,38.5847248 69.7759225,36.2458256 L63,29.4699031 L56.2240775,36.2458256 C53.8851783,38.5847248 50.0930735,38.5847248 47.7541744,36.2458256 C45.4152752,33.9069265 45.4152752,30.1148217 47.7541744,27.7759225 L54.5300969,21 L47.7541744,14.2240775 C45.4152752,11.8851783 45.4152752,8.09307354 47.7541744,5.75417437 C50.0930735,3.41527521 53.8851783,3.41527521 56.2240775,5.75417437 L63,12.5300969 L69.7759225,5.75417437 C72.1148217,3.41527521 75.9069265,3.41527521 78.2458256,5.75417437 C80.5847248,8.09307354 80.5847248,11.8851783 78.2458256,14.2240775 L71.4699031,21 Z" id="eye13" fill="#2A2B2D" fill-rule="nonzero"></path>
                {{/ifCond}}
                {{#ifCond eye "===" 14}}
                <g id="eye14" transform="translate(42.000000, 2.000000)" fill-rule="nonzero">
                    <circle id="1" fill="#FFFFFF" cx="21" cy="21" r="21"></circle>
                    <path d="M32.5979797,24 L21,35.5979797 L9.40202025,24 C6.19932658,20.7973063 6.19932658,15.6047139 9.40202025,12.4020203 C12.6047139,9.19932658 17.7973063,9.19932658 21,12.4020203 C24.2026937,9.19932658 29.3952861,9.19932658 32.5979797,12.4020203 C35.8006734,15.6047139 35.8006734,20.7973063 32.5979797,24 Z" id="1" fill="#FF6F81"></path>
                </g>
                {{/ifCond}}
                {{#ifCond eye "===" 15}}
                <g id="eye15" transform="translate(42.000000, 2.000000)" fill-rule="nonzero">
                    <circle id="1" fill="#FFFFFF" cx="21" cy="21" r="21"></circle>
                    <polygon id="path-1" fill="#E8DF6A" points="21 29.5 12.183221 34.1352549 13.867076 24.3176275 6.734152 17.3647451 16.591611 15.9323725 21 7 25.408389 15.9323725 35.265848 17.3647451 28.132924 24.3176275 29.816779 34.1352549"></polygon>
                </g>
                {{/ifCond}}
                {{#ifCond eye "===" 16}}
                <g id="eye16" transform="translate(4.000000, 6.000000)" fill-rule="nonzero">
                    <path d="M102,0 C111.941125,0 120,8.0588745 120,18 C120,27.9411255 111.941125,36 102,36 C92.0588745,36 84,27.9411255 84,18 C84,8.0588745 92.0588745,0 102,0 Z M60,0 C69.9411255,0 78,8.0588745 78,18 C78,27.9411255 69.9411255,36 60,36 C50.0588745,36 42,27.9411255 42,18 C42,8.0588745 50.0588745,0 60,0 Z M18,0 C27.9411255,0 36,8.0588745 36,18 C36,27.9411255 27.9411255,36 18,36 C8.0588745,36 0,27.9411255 0,18 C0,8.0588745 8.0588745,0 18,0 Z" id="Combined-Shape" fill="#FFFFFF"></path>
                    <path d="M102,13 C104.761424,13 107,15.2385763 107,18 C107,20.7614237 104.761424,23 102,23 C99.2385763,23 97,20.7614237 97,18 C97,15.2385763 99.2385763,13 102,13 Z M60,13 C62.7614237,13 65,15.2385763 65,18 C65,20.7614237 62.7614237,23 60,23 C57.2385763,23 55,20.7614237 55,18 C55,15.2385763 57.2385763,13 60,13 Z M18,13 C20.7614237,13 23,15.2385763 23,18 C23,20.7614237 20.7614237,23 18,23 C15.2385763,23 13,20.7614237 13,18 C13,15.2385763 15.2385763,13 18,13 Z" id="Combined-Shape" fill="#4A4A4A"></path>
                </g>
                {{/ifCond}}
                {{#ifCond eye "===" 17}}
                <g id="eye17" transform="translate(4.000000, 14.000000)" fill-rule="nonzero">
                    <path d="M84,10 C84,0.0588745036 92.0588745,1 102,1 L102.316623,0.999694704 C112.111679,0.981207634 120,0.164631158 120,10 C120,19.9411255 111.941125,28 102,28 C92.0588745,28 84,19.9411255 84,10 Z M42,10 C42,0.0588745036 50.0588745,1 60,1 L60.3166235,0.999694704 C70.1116789,0.981207634 78,0.164631158 78,10 C78,19.9411255 69.9411255,28 60,28 C50.0588745,28 42,19.9411255 42,10 Z M0,10 C0,0.0588745036 8.0588745,1 18,1 L18.3166235,0.999694704 C28.1116789,0.981207634 36,0.164631158 36,10 C36,19.9411255 27.9411255,28 18,28 C8.0588745,28 0,19.9411255 0,10 Z" id="Combined-Shape" fill="#FFFFFF"></path>
                    <path d="M102,5 C104.761424,5 107,7.23857625 107,10 C107,12.7614237 104.761424,15 102,15 C99.2385763,15 97,12.7614237 97,10 C97,7.23857625 99.2385763,5 102,5 Z M60,5 C62.7614237,5 65,7.23857625 65,10 C65,12.7614237 62.7614237,15 60,15 C57.2385763,15 55,12.7614237 55,10 C55,7.23857625 57.2385763,5 60,5 Z M18,5 C20.7614237,5 23,7.23857625 23,10 C23,12.7614237 20.7614237,15 18,15 C15.2385763,15 13,12.7614237 13,10 C13,7.23857625 15.2385763,5 18,5 Z" id="Combined-Shape" fill="#4A4A4A"></path>
                </g>
                {{/ifCond}}
                {{#ifCond eye "===" 18}}
                <g id="eye18" transform="translate(4.000000, 15.000000)" fill-rule="nonzero">
                    <path d="M112,0 C116.418278,0 120,3.581722 120,8 C120,12.418278 116.418278,16 112,16 L92,16 C87.581722,16 84,12.418278 84,8 C84,3.581722 87.581722,0 92,0 L112,0 Z M70,0 C74.418278,0 78,3.581722 78,8 C78,12.418278 74.418278,16 70,16 L50,16 C45.581722,16 42,12.418278 42,8 C42,3.581722 45.581722,0 50,0 L70,0 Z M28,0 C32.418278,0 36,3.581722 36,8 C36,12.418278 32.418278,16 28,16 L8,16 C3.581722,16 0,12.418278 0,8 C0,3.581722 3.581722,0 8,0 L28,0 Z" id="Combined-Shape" fill="#FFFFFF"></path>
                    <path d="M102,3 C104.761424,3 107,5.23857625 107,8 C107,10.7614237 104.761424,13 102,13 C99.2385763,13 97,10.7614237 97,8 C97,5.23857625 99.2385763,3 102,3 Z M60,3 C62.7614237,3 65,5.23857625 65,8 C65,10.7614237 62.7614237,13 60,13 C57.2385763,13 55,10.7614237 55,8 C55,5.23857625 57.2385763,3 60,3 Z M18,3 C20.7614237,3 23,5.23857625 23,8 C23,10.7614237 20.7614237,13 18,13 C15.2385763,13 13,10.7614237 13,8 C13,5.23857625 15.2385763,3 18,3 Z" id="Combined-Shape" fill="#4A4A4A"></path>
                </g>
                {{/ifCond}}
                {{#ifCond eye "===" 19}}
                <g id="eye19" transform="translate(4.000000, 6.000000)" fill-rule="nonzero">
                    <path d="M102,0 C111.941125,0 120,8.0588745 120,18 C120,27.9411255 111.941125,36 102,36 C92.0588745,36 84,27.9411255 84,18 C84,8.0588745 92.0588745,0 102,0 Z M60,0 C69.9411255,0 78,8.0588745 78,18 C78,27.9411255 69.9411255,36 60,36 C50.0588745,36 42,27.9411255 42,18 C42,8.0588745 50.0588745,0 60,0 Z M18,0 C27.9411255,0 36,8.0588745 36,18 C36,27.9411255 27.9411255,36 18,36 C8.0588745,36 0,27.9411255 0,18 C0,8.0588745 8.0588745,0 18,0 Z" id="Combined-Shape" fill="#FFFFFF"></path>
                    <path d="M111.849242,11.0502525 C114.582912,13.7839226 114.582912,18.2160774 111.849242,20.9497475 L101.949747,30.8492424 L92.0502525,20.9497475 C89.3165825,18.2160774 89.3165825,13.7839226 92.0502525,11.0502525 C94.7839226,8.31658249 99.2160774,8.31658249 101.949747,11.0502525 C104.683418,8.31658249 109.115572,8.31658249 111.849242,11.0502525 Z M69.8492424,11.0502525 C72.5829124,13.7839226 72.5829124,18.2160774 69.8492424,20.9497475 L59.9497475,30.8492424 L50.0502525,20.9497475 C47.3165825,18.2160774 47.3165825,13.7839226 50.0502525,11.0502525 C52.7839226,8.31658249 57.2160774,8.31658249 59.9497475,11.0502525 C62.6834175,8.31658249 67.1155724,8.31658249 69.8492424,11.0502525 Z M27.8492424,11.0502525 C30.5829124,13.7839226 30.5829124,18.2160774 27.8492424,20.9497475 L17.9497475,30.8492424 L8.05025253,20.9497475 C5.31658249,18.2160774 5.31658249,13.7839226 8.05025253,11.0502525 C10.7839226,8.31658249 15.2160774,8.31658249 17.9497475,11.0502525 C20.6834175,8.31658249 25.1155724,8.31658249 27.8492424,11.0502525 Z" id="Combined-Shape" fill="#FF6F81"></path>
                </g>
                {{/ifCond}}
                {{#ifCond eye "===" 20}}
                <g id="eye20" transform="translate(4.000000, 6.000000)">
                    <path d="M102,0 C111.941125,0 120,8.0588745 120,18 C120,27.9411255 111.941125,36 102,36 C92.0588745,36 84,27.9411255 84,18 C84,8.0588745 92.0588745,0 102,0 Z M60,0 C69.9411255,0 78,8.0588745 78,18 C78,27.9411255 69.9411255,36 60,36 C50.0588745,36 42,27.9411255 42,18 C42,8.0588745 50.0588745,0 60,0 Z M18,0 C27.9411255,0 36,8.0588745 36,18 C36,27.9411255 27.9411255,36 18,36 C8.0588745,36 0,27.9411255 0,18 C0,8.0588745 8.0588745,0 18,0 Z" id="Combined-Shape" fill="#FFFFFF" fill-rule="nonzero"></path>
                    <g id="Combined-Shape" transform="translate(5.000000, 5.000000)" fill="#E8DF6A" fill-rule="nonzero">
                        <path d="M97,0 L101.017221,8.1397787 L110,9.4450529 L103.5,15.7809869 L105.034442,24.7274694 L97,20.5035134 L88.9655581,24.7274694 L90.5,15.7809869 L84,9.4450529 L92.9827791,8.1397787 L97,0 Z M55,0 L59.0172209,8.1397787 L68,9.4450529 L61.5,15.7809869 L63.0344419,24.7274694 L55,20.5035134 L46.9655581,24.7274694 L48.5,15.7809869 L42,9.4450529 L50.9827791,8.1397787 L55,0 Z M13,0 L17.0172209,8.1397787 L26,9.4450529 L19.5,15.7809869 L21.0344419,24.7274694 L13,20.5035134 L4.96555815,24.7274694 L6.5,15.7809869 L0,9.4450529 L8.9827791,8.1397787 L13,0 Z" id="path-1"></path>
                    </g>
                    <g id="Color-/-Yellow-02-Clipped" transform="translate(5.000000, 5.000000)">
                        <mask id="mask-18" fill="white">
                            <use xlink:href="#path-17"></use>
                        </mask>
                        <g id="path-1"></g>
                        <g id="Color-/-Yellow-02" mask="url(#mask-18)">
                            <g transform="translate(-65.000000, -32.000000)" id="Color">
                                <g>
                                    <rect id="矩形" fill="#E8DF6A" fill-rule="nonzero" x="0" y="0" width="240" height="80"></rect>
                                </g>
                            </g>
                        </g>
                    </g>
                </g>
                {{/ifCond}}
                {{#ifCond eye "===" 21}}
                <g id="eye21" transform="translate(7.000000, 9.000000)">
                    <g id="Combined-Shape" fill="#D8D8D8" fill-rule="nonzero">
                        <path d="M93.3431458,2.27207794 L99,7.92893219 L104.656854,2.27207794 C106.609476,0.31945648 109.775301,0.31945648 111.727922,2.27207794 C113.680544,4.2246994 113.680544,7.39052429 111.727922,9.34314575 L106.071068,15 L111.727922,20.6568542 C113.680544,22.6094757 113.680544,25.7753006 111.727922,27.7279221 C109.775301,29.6805435 106.609476,29.6805435 104.656854,27.7279221 L99,22.0710678 L93.3431458,27.7279221 C91.3905243,29.6805435 88.2246994,29.6805435 86.2720779,27.7279221 C84.3194565,25.7753006 84.3194565,22.6094757 86.2720779,20.6568542 L91.9289322,15 L86.2720779,9.34314575 C84.3194565,7.39052429 84.3194565,4.2246994 86.2720779,2.27207794 C88.2246994,0.31945648 91.3905243,0.31945648 93.3431458,2.27207794 Z M51.3431458,2.27207794 L57,7.92893219 L62.6568542,2.27207794 C64.6094757,0.31945648 67.7753006,0.31945648 69.7279221,2.27207794 C71.6805435,4.2246994 71.6805435,7.39052429 69.7279221,9.34314575 L64.0710678,15 L69.7279221,20.6568542 C71.6805435,22.6094757 71.6805435,25.7753006 69.7279221,27.7279221 C67.7753006,29.6805435 64.6094757,29.6805435 62.6568542,27.7279221 L57,22.0710678 L51.3431458,27.7279221 C49.3905243,29.6805435 46.2246994,29.6805435 44.2720779,27.7279221 C42.3194565,25.7753006 42.3194565,22.6094757 44.2720779,20.6568542 L49.9289322,15 L44.2720779,9.34314575 C42.3194565,7.39052429 42.3194565,4.2246994 44.2720779,2.27207794 C46.2246994,0.31945648 49.3905243,0.31945648 51.3431458,2.27207794 Z M9.34314575,2.27207794 L15,7.92893219 L20.6568542,2.27207794 C22.6094757,0.31945648 25.7753006,0.31945648 27.7279221,2.27207794 C29.6805435,4.2246994 29.6805435,7.39052429 27.7279221,9.34314575 L22.0710678,15 L27.7279221,20.6568542 C29.6805435,22.6094757 29.6805435,25.7753006 27.7279221,27.7279221 C25.7753006,29.6805435 22.6094757,29.6805435 20.6568542,27.7279221 L15,22.0710678 L9.34314575,27.7279221 C7.39052429,29.6805435 4.2246994,29.6805435 2.27207794,27.7279221 C0.31945648,25.7753006 0.31945648,22.6094757 2.27207794,20.6568542 L7.92893219,15 L2.27207794,9.34314575 C0.31945648,7.39052429 0.31945648,4.2246994 2.27207794,2.27207794 C4.2246994,0.31945648 7.39052429,0.31945648 9.34314575,2.27207794 Z" id="path-1"></path>
                    </g>
                    <g id="Color-/-Dark-Clipped">
                        <mask id="mask-20" fill="white">
                            <use xlink:href="#path-19"></use>
                        </mask>
                        <g id="path-1"></g>
                        <g id="Color-/-Dark" mask="url(#mask-20)">
                            <g transform="translate(-69.000000, -32.000000)" id="Color">
                                <g>
                                    <rect id="矩形" fill="#2A2B2D" fill-rule="nonzero" x="0" y="0" width="240" height="80"></rect>
                                </g>
                            </g>
                        </g>
                    </g>
                </g>
                {{/ifCond}}
                {{#ifCond eye "===" 22}}
                <g id="eye22" transform="translate(3.000000, 26.000000)">
                    <g id="Combined-Shape" fill="#000000" fill-rule="nonzero">
                        <path d="M102.586254,16 C92.6451286,16 87.586254,10 84.586254,1.89392469 C84.2596927,1.01154767 83.586254,9.50350909e-14 84.586254,9.50350909e-14 C85.586254,9.50350909e-14 87.8334403,11.8653166 102.586254,11.8653166 C117.687461,11.8653166 119.435893,0.0134378518 120.511073,0.0067189259 C121.586254,9.50350909e-14 121.107149,0.660084697 120.586254,1.89392469 C117.586254,9 112.52738,16 102.586254,16 Z M60.5262565,16 C50.585131,16 45.5262565,10 42.5262565,1.89392469 C42.1996951,1.01154767 41.5262565,0 42.5262565,0 C43.5262565,0 45.7734428,11.8653166 60.5262565,11.8653166 C75.6274633,11.8653166 77.375895,0.0134378518 78.4510757,0.0067189259 C79.5262565,0 79.0471516,0.660084697 78.5262565,1.89392469 C75.5262565,9 70.467382,16 60.5262565,16 Z M18.5262565,16 C8.58513099,16 3.52625649,10 0.526256489,1.89392469 C0.199695118,1.01154767 -0.473743511,9.50350909e-14 0.526256489,9.50350909e-14 C1.52625649,9.50350909e-14 3.77344278,11.8653166 18.5262565,11.8653166 C33.6274633,11.8653166 35.375895,0.0134378518 36.4510757,0.0067189259 C37.5262565,9.50350909e-14 37.0471516,0.660084697 36.5262565,1.89392469 C33.5262565,9 28.467382,16 18.5262565,16 Z" id="path-1"></path>
                    </g>
                    <g id="Color-/-Blue-03-Clipped">
                        <mask id="mask-22" fill="white">
                            <use xlink:href="#path-21"></use>
                        </mask>
                        <g id="path-1"></g>
                        <g id="Color-/-Blue-03" mask="url(#mask-22)">
                            <g transform="translate(-49.000000, -47.000000)" id="Color">
                                <g>
                                    <rect id="矩形" fill="#{{colorDarker}}" fill-rule="nonzero" x="0" y="0" width="220" height="80"></rect>
                                </g>
                            </g>
                        </g>
                    </g>
                </g>
                {{/ifCond}}
                {{#ifCond eye "===" 23}}
                <g id="eye23" transform="translate(3.000000, 6.000000)">
                    <g id="Combined-Shape" fill="#000000" fill-rule="nonzero">
                        <path d="M102.586254,0 C112.52738,0 117.586254,7 120.586254,14.1060753 C121.107149,15.3399153 121.586254,16 120.511073,15.9932811 C119.435893,15.9865621 117.687461,4.1346834 102.586254,4.1346834 C87.8334403,4.1346834 85.586254,16 84.586254,16 C83.586254,16 84.2596927,14.9884523 84.586254,14.1060753 C87.586254,6 92.6451286,0 102.586254,0 Z M60.5262565,9.59232693e-14 C70.467382,9.59232693e-14 75.5262565,7 78.5262565,14.1060753 C79.0471516,15.3399153 79.5262565,16 78.4510757,15.9932811 C77.375895,15.9865621 75.6274633,4.1346834 60.5262565,4.1346834 C45.7734428,4.1346834 43.5262565,16 42.5262565,16 C41.5262565,16 42.1996951,14.9884523 42.5262565,14.1060753 C45.5262565,6 50.585131,9.59232693e-14 60.5262565,9.59232693e-14 Z M18.5262565,0 C28.467382,0 33.5262565,7 36.5262565,14.1060753 C37.0471516,15.3399153 37.5262565,16 36.4510757,15.9932811 C35.375895,15.9865621 33.6274633,4.1346834 18.5262565,4.1346834 C3.77344278,4.1346834 1.52625649,16 0.526256489,16 C-0.473743511,16 0.199695118,14.9884523 0.526256489,14.1060753 C3.52625649,6 8.58513099,0 18.5262565,0 Z" id="path-1"></path>
                    </g>
                    <g id="Color-/-Blue-03-Clipped">
                        <mask id="mask-24" fill="white">
                            <use xlink:href="#path-23"></use>
                        </mask>
                        <g id="path-1"></g>
                        <g id="Color-/-Blue-03" mask="url(#mask-24)">
                            <g transform="translate(-49.000000, -47.000000)" id="Color">
                                <g>
                                    <rect id="矩形" fill="#{{colorDarker}}" fill-rule="nonzero" x="0" y="0" width="220" height="80"></rect>
                                </g>
                            </g>
                        </g>
                    </g>
                </g>
                {{/ifCond}}
            </g>
        </g>
    </g>
</svg>