<?xml version="1.0" encoding="UTF-8"?>
<svg viewBox="0 0 232 250" version="1.1" xmlns="http://www.w3.org/2000/svg" xmlns:xlink="http://www.w3.org/1999/xlink">
    <!-- Generator: Sketch 60.1 (88133) - https://sketch.com -->
    <title>Avatar / Default@2x</title>
    <desc>Created with Sketch.</desc>
    <defs>
        <path d="M132,30 C154.09139,30 172,41.6903426 172,56.1111111 C172,56.3981881 171.992903,56.6841831 171.978817,56.9690253 C187.208553,64.7318512 197,76.8273983 197,90.4152542 C197,113.840552 167.898509,132.830508 132,132.830508 C96.1014913,132.830508 67,113.840552 67,90.4152542 C67,76.8273983 76.7914467,64.7318512 92.0213326,56.9691347 C92.0070971,56.6841831 92,56.3981881 92,56.1111111 C92,41.6903426 109.90861,30 132,30 Z" id="path-1"></path>
        <path d="M32.7134373,60.07349 C43.3660968,25.2922649 75.7293859,0 114,0 C152.270614,0 184.633903,25.2922649 195.286563,60.07349 C213.550747,61.2513119 228,76.438254 228,95 C228,113.791767 213.190412,129.12457 194.605826,129.963816 C190.992884,154.701521 185.281427,185.096125 177.957168,215.000034 L50.0428237,215.000034 C42.7185733,185.096125 37.007116,154.701521 33.3941709,129.963797 C14.8095883,129.12457 0,113.791767 0,95 C0,76.438254 14.4492528,61.2513119 32.7134352,60.0734968 L32.7134373,60.07349 Z" id="path-3"></path>
        <path d="M144,56 C176.913742,60.6508896 203.767701,84.1536643 213.286565,115.233014 C214.88949,115.336383 216.463031,115.547656 218,115.859644 C233.975682,119.102536 246,133.226812 246,150.159517 C246,169.489483 230.329966,185.159517 211,185.159517 C209.737047,185.159517 208.489717,185.092624 207.261361,184.962187 C172.04103,182.298672 144.257963,153.001279 144,117.159517 L144,56 Z M120,55.840483 L120,117 C119.742037,152.841762 91.9589705,182.139155 56.7386394,184.80267 C55.5102832,184.933107 54.2629535,185 53,185 C33.6700338,185 18,169.329966 18,150 C18,133.067295 30.0243178,118.943019 46,115.700127 C47.5369685,115.388139 49.1105098,115.176866 50.7134352,115.073497 C60.2322985,83.9941473 87.0862584,60.4913726 120,55.840483 Z" id="path-5"></path>
        <path d="M22.8139528,26.6394169 C18.8319648,23.6680671 16.4320712,17.7334367 19.214874,12.9629176 C21.9976768,8.19239844 28.1208541,6.581036 32.8913733,9.36383883 C39.339589,13.125298 48.5193297,14.0016278 54.5193297,14.0016278 C60.5193297,14.0016278 69.6990704,13.125298 76.1472861,9.36383883 C80.9178052,6.581036 87.0409825,8.19239844 89.8237854,12.9629176 C92.6065882,17.7334367 89.7725014,23.5832047 86.2247066,26.6394169 C80,32.0016278 71.5193297,37.0016278 54.5193297,37.0016278 C37.5193297,37.0016278 30,32.0016278 22.8139528,26.6394169 Z" id="path-7"></path>
        <path d="M50.2256669,39.6346505 C50.5156069,41.5475044 48.9869959,43.4599421 46.8114187,43.9061997 C44.6358415,44.3524574 42.6371449,43.1635462 42.3472048,41.2506923 C42.0572648,39.3378385 42.5843769,29.4170384 44.5539924,29.0130279 C46.5236079,28.6090175 49.9357268,37.7217966 50.2256669,39.6346505 Z M35.8779878,29.0167215 L35.9850669,29.0263913 C37.9546824,29.3736877 38.2598709,39.1604188 37.9253247,41.0577245 C37.5907785,42.9550302 35.5559215,44.1821206 33.3803442,43.7985076 C31.204767,43.4148947 29.7123165,41.5658447 30.0468627,39.668539 C30.3814089,37.7712333 34.0154514,28.679095 35.9850669,29.0263913 Z" id="path-9"></path>
        <path d="M24.9703325,-1.70918507 C26.5126727,3.29649237 26.6058613,8.55120179 25.2638185,14.0195037 C27.1047731,15.7152614 28.9194971,17.8040433 30.2033575,20.2373423 C32.0576874,23.7518516 32.8315701,24.6560632 36.5773485,32.6722026 C37.8723663,35.4436009 39.4492979,38.7246714 40.28585,40.4340978 C43.5541025,47.1125072 45.8300642,49.3575126 48.3974457,52.0186571 C54.4071886,58.247881 62.708597,60.3541549 71.2849539,63.1623286 C72.5971167,63.5919727 71.3635055,66.8653918 70.9338614,68.1775546 C70.5042173,69.4897174 68.1663652,72.4317506 66.8542024,72.0021065 C57.5105431,68.9426935 49.5311077,63.9949622 42.9492508,57.1727301 C39.915487,54.0281707 37.1106211,49.3814099 33.624987,42.2587989 C32.7717421,40.5152621 31.9782864,38.8403216 30.6713557,36.0434292 C30.0515223,34.7169569 29.4646997,33.4703985 28.9073207,32.298556 C26.7685997,30.5667458 23.9370502,29.7186468 20.2967741,29.758018 C14.2467509,29.8234517 8.31814217,27.4721227 2.56062207,22.8006827 C1.48843599,21.9307504 1.32447695,20.3563523 2.1944093,19.2841662 C3.06434164,18.2119802 4.6387397,18.0480211 5.71092578,18.9179535 C10.6134442,22.8956766 15.4408109,24.810245 20.2427001,24.7583104 C22.1030992,24.7381894 23.8429549,24.9111893 25.4554772,25.2775304 C22.114212,18.7992303 19.9939113,15.935735 17.5309629,14.4085584 C11.0074756,10.3636028 6.89918295,6.29879609 5.27422015,2.05760634 C4.78023275,0.768288018 5.42497585,-0.677366904 6.71429417,-1.1713543 C8.00361249,-1.66534171 9.44926741,-1.02059861 9.94325481,0.268719712 C11.0998685,3.28750769 14.4846873,6.63649839 20.1658464,10.1591598 C20.6502684,10.4595306 21.1929327,10.8136422 21.7724118,11.2194347 C22.5108415,7.1162478 22.2995508,3.20706988 21.1476743,-0.531354614 C20.8224254,-1.58695252 21.4144903,-2.70635002 22.4700882,-3.03159892 C23.5256861,-3.35684782 24.6450836,-2.76478297 24.9703325,-1.70918507 Z M211.354457,-3.09952344 C212.410055,-2.77427454 213.002119,-1.65487704 212.676871,-0.599279134 C211.524994,3.13914536 211.313703,7.04832328 212.052133,11.1515102 C212.631612,10.7457177 213.174276,10.3916061 213.658698,10.0912353 C219.339858,6.56857387 222.724676,3.21958317 223.88129,0.200795192 C224.375277,-1.08852313 225.820932,-1.73326623 227.110251,-1.23927882 C228.399569,-0.745291424 229.044312,0.700363498 228.550325,1.98968182 C226.925362,6.23087157 222.817069,10.2956783 216.293582,14.3406339 C213.830634,15.8678105 211.710333,18.7313057 208.369068,25.2096059 C209.98159,24.8432648 211.721446,24.6702649 213.581845,24.6903859 C218.383734,24.7423205 223.211101,22.8277521 228.113619,18.8500289 C229.185805,17.9800966 230.760203,18.1440556 231.630136,19.2162417 C232.500068,20.2884278 232.336109,21.8628258 231.263923,22.7327582 C225.506403,27.4041982 219.577794,29.7555272 213.527771,29.6900935 C209.887495,29.6507223 207.055945,30.4988213 204.917224,32.2306315 C204.359845,33.402474 203.773023,34.6490324 203.153189,35.9755047 C201.846258,38.772397 201.052803,40.4473376 200.199558,42.1908744 C196.713924,49.3134854 193.909058,53.9602461 190.875294,57.1048056 C184.293437,63.9270377 176.314002,68.874769 166.970342,71.934182 C165.65818,72.3638261 163.320327,69.4217929 162.890683,68.1096301 C162.461039,66.7974673 161.227428,63.5240482 162.539591,63.0944041 C171.115948,60.2862304 179.417356,58.1799565 185.427099,51.9507326 C187.994481,49.2895881 190.270442,47.0445827 193.538695,40.3661733 C194.375247,38.6567469 195.952179,35.3756764 197.247196,32.6042781 C200.992975,24.5881387 201.766857,23.683927 203.621187,20.1694178 C204.905048,17.7361188 206.719772,15.6473369 208.560726,13.9515792 C207.218684,8.48327727 207.311872,3.22856785 208.854212,-1.77710959 C209.179461,-2.83270749 210.298859,-3.42477234 211.354457,-3.09952344 Z" id="path-11"></path>
    </defs>
    <g id="Introduction" stroke="none" stroke-width="1" fill="none" fill-rule="evenodd">
        <g id="Monsters" transform="translate(-1164.000000, -450.000000)">
            <g id="Avatar-/-Default" transform="translate(1148.000000, 420.000000)">
                <g id="Hats-/-01" transform="translate(1.000000, 0.000000)">
                    <mask id="mask-2" fill="white">
                        <use xlink:href="#path-1"></use>
                    </mask>
                    <use id="Combined-Shape" fill="#E9EFF2" fill-rule="evenodd" xlink:href="#path-1"></use>
                    <g id="Color-/-Pink-03" mask="url(#mask-2)" fill="#B81D82" fill-rule="evenodd">
                        <rect id="Color" x="0" y="0" width="264" height="150"></rect>
                    </g>
                    <path d="M132,30 C154.09139,30 172,41.6903426 172,56.1111111 C172,56.3981881 171.992903,56.6841831 171.978817,56.9690253 C160.952416,51.3490227 147.075561,48 132,48 C116.924439,48 103.047584,51.3490227 92.0213326,56.9691347 C92.0070971,56.6841831 92,56.3981881 92,56.1111111 C92,41.6903426 109.90861,30 132,30 Z" id="Combined-Shape" fill="#FFFFFF" fill-rule="evenodd" opacity="0.204936594" mask="url(#mask-2)"></path>
                </g>
                <g id="Body-/-03" transform="translate(1.000000, 0.000000)" fill-rule="evenodd" stroke-width="1">
                    <g id="Body" transform="translate(18.000000, 65.000000)">
                        <mask id="mask-4" fill="white">
                            <use xlink:href="#path-3"></use>
                        </mask>
                        <use id="Combined-Shape" fill="#CBD1D5" xlink:href="#path-3"></use>
                        <g id="Color-/-Blue-02" mask="url(#mask-4)" fill="#3776FD">
                            <g transform="translate(-18.000000, -65.000000)" id="Color">
                                <rect x="0" y="0" width="264" height="280"></rect>
                            </g>
                        </g>
                    </g>
                </g>
                <g id="Body-color-/-01" transform="translate(1.000000, 10.000000)">
                    <mask id="mask-6" fill="white">
                        <use xlink:href="#path-5"></use>
                    </mask>
                    <use id="Combined-Shape" fill="#CBD1D5" fill-rule="evenodd" xlink:href="#path-5"></use>
                    <g id="Color-/-Blue-03" mask="url(#mask-6)" fill="#2C4376" fill-rule="evenodd">
                        <rect id="Color" x="0" y="0" width="264" height="270"></rect>
                    </g>
                </g>
                <g id="Mouth-/-03" transform="translate(78.000000, 204.000000)">
                    <mask id="mask-8" fill="white">
                        <use xlink:href="#path-7"></use>
                    </mask>
                    <use id="Path-2-Copy" fill="#2052BE" fill-rule="nonzero" xlink:href="#path-7"></use>
                    <g id="Color-/-Blue-03" mask="url(#mask-8)" fill="#2C4376" fill-rule="evenodd">
                        <rect id="Color" x="0" y="0" width="110" height="55"></rect>
                    </g>
                    <ellipse id="Oval" fill="#FF6F81" fill-rule="evenodd" mask="url(#mask-8)" cx="55" cy="40" rx="20" ry="13"></ellipse>
                    <g id="teeth" stroke-width="1" fill-rule="evenodd" mask="url(#mask-8)" fill="#FFFFFF">
                        <g transform="translate(45.000000, 8.000000)">
                            <path d="M13.6763793,12.5291644 C10.992963,12.14462 9.34375696,9.40786131 9.99277443,6.41644264 C10.6417919,3.42502397 13.3432632,1.31173476 16.0266794,1.69627908 C18.7100957,2.0808234 20.3593017,4.81758214 19.7102843,7.80900081 C19.0612668,10.8004195 16.3597955,12.9137087 13.6763793,12.5291644 Z" id="3"></path>
                            <ellipse id="2" transform="translate(5.905405, 7.112722) rotate(-10.000000) translate(-5.905405, -7.112722) " cx="5.90540516" cy="7.11272172" rx="5" ry="5.5"></ellipse>
                        </g>
                    </g>
                </g>
                <g id="Nose-/-03" transform="translate(92.000000, 150.000000)">
                    <mask id="mask-10" fill="white">
                        <use xlink:href="#path-9"></use>
                    </mask>
                    <use id="Combined-Shape" fill="#2052BE" fill-rule="evenodd" xlink:href="#path-9"></use>
                    <g id="Color-/-Blue-03" mask="url(#mask-10)" fill="#2C4376" fill-rule="evenodd">
                        <rect id="Color" x="0" y="0" width="80" height="70"></rect>
                    </g>
                </g>
                <g id="Eyes-/-2.2-/-01" transform="translate(13.000000, 115.000000)" fill-rule="evenodd" stroke-width="1">
                    <g id="Eyes" transform="translate(18.000000, 27.000000)">
                        <path d="M186,0 C195.941125,0 204,8.0588745 204,18 C204,27.9411255 195.941125,36 186,36 C176.058875,36 168,27.9411255 168,18 C168,8.0588745 176.058875,0 186,0 Z M18,0 C27.9411255,0 36,8.0588745 36,18 C36,27.9411255 27.9411255,36 18,36 C8.0588745,36 0,27.9411255 0,18 C0,8.0588745 8.0588745,0 18,0 Z" id="Combined-Shape" fill="#FFFFFF"></path>
                        <path d="M186,13 C188.761424,13 191,15.2385763 191,18 C191,20.7614237 188.761424,23 186,23 C183.238576,23 181,20.7614237 181,18 C181,15.2385763 183.238576,13 186,13 Z M18,13 C20.7614237,13 23,15.2385763 23,18 C23,20.7614237 20.7614237,23 18,23 C15.2385763,23 13,20.7614237 13,18 C13,15.2385763 15.2385763,13 18,13 Z" id="Combined-Shape" fill="#4A4A4A"></path>
                    </g>
                </g>
                <g id="Horns-/-04" fill-rule="evenodd" stroke-width="1">
                    <g id="Horns" transform="translate(15.000000, 40.000000)">
                        <mask id="mask-12" fill="white">
                            <use xlink:href="#path-11"></use>
                        </mask>
                        <use id="Combined-Shape" fill="#979797" fill-rule="nonzero" xlink:href="#path-11"></use>
                        <g id="Color-/-Blue-03" mask="url(#mask-12)" fill="#2C4376">
                            <g transform="translate(-15.000000, -40.000000)" id="Color">
                                <rect x="0" y="0" width="264" height="160"></rect>
                            </g>
                        </g>
                    </g>
                </g>
            </g>
        </g>
    </g>
</svg>